<?xml version="1.0" encoding="UTF-8" standalone="no"?>
<!-- Created with Inkscape (http://www.inkscape.org/) -->

<svg
   xmlns:dc="http://purl.org/dc/elements/1.1/"
   xmlns:cc="http://creativecommons.org/ns#"
   xmlns:rdf="http://www.w3.org/1999/02/22-rdf-syntax-ns#"
   xmlns:svg="http://www.w3.org/2000/svg"
   xmlns="http://www.w3.org/2000/svg"
   xmlns:sodipodi="http://sodipodi.sourceforge.net/DTD/sodipodi-0.dtd"
   xmlns:inkscape="http://www.inkscape.org/namespaces/inkscape"
   width="1052.3622"
   height="744.09448"
   id="svg2"
   version="1.1"
   inkscape:version="0.48.2 r9819"
   sodipodi:docname="javeearcitecture">
  <defs
     id="defs4" />
  <sodipodi:namedview
     id="base"
     pagecolor="#ffffff"
     bordercolor="#666666"
     borderopacity="1.0"
     inkscape:pageopacity="0.0"
     inkscape:pageshadow="2"
     inkscape:zoom="0.98994949"
     inkscape:cx="886.02044"
     inkscape:cy="368.26685"
     inkscape:document-units="px"
     inkscape:current-layer="layer1"
     showgrid="false"
     inkscape:window-width="1920"
     inkscape:window-height="1138"
     inkscape:window-x="-8"
     inkscape:window-y="-8"
     inkscape:window-maximized="1" />
  <metadata
     id="metadata7">
    <rdf:RDF>
      <cc:Work
         rdf:about="">
        <dc:format>image/svg+xml</dc:format>
        <dc:type
           rdf:resource="http://purl.org/dc/dcmitype/StillImage" />
        <dc:title></dc:title>
      </cc:Work>
    </rdf:RDF>
  </metadata>
  <g
     inkscape:label="Layer 1"
     inkscape:groupmode="layer"
     id="layer1"
     transform="translate(0,-308.2677)">
    <rect
       style="fill:#f9f9f9;fill-rule:evenodd;stroke:#000000;stroke-width:1.39661098px;stroke-linecap:butt;stroke-linejoin:miter;stroke-opacity:1"
       id="rect2985"
       width="231.93848"
       height="141.02473"
       x="49.695782"
       y="336.36234" />
    <text
       xml:space="preserve"
       style="font-size:36px;font-style:normal;font-weight:normal;line-height:125%;letter-spacing:0px;word-spacing:0px;fill:#000000;fill-opacity:1;stroke:none;font-family:Sans"
       x="105.68021"
       y="388.67163"
       id="text2987"
       sodipodi:linespacing="125%"><tspan
         sodipodi:role="line"
         id="tspan2989"
         x="105.68021"
         y="388.67163">Person</tspan><tspan
         sodipodi:role="line"
         x="105.68021"
         y="433.67163"
         id="tspan2991">Servlet</tspan></text>
    <rect
       style="fill:#f9f9f9;fill-rule:evenodd;stroke:#000000;stroke-width:1.39661098px;stroke-linecap:butt;stroke-linejoin:miter;stroke-opacity:1"
       id="rect2985-1"
       width="231.93848"
       height="141.02473"
       x="53.736389"
       y="647.48932" />
    <text
       xml:space="preserve"
       style="font-size:36px;font-style:normal;font-weight:normal;line-height:125%;letter-spacing:0px;word-spacing:0px;fill:#000000;fill-opacity:1;stroke:none;font-family:Sans"
       x="112.75128"
       y="704.84943"
       id="text2987-7"
       sodipodi:linespacing="125%"><tspan
         sodipodi:role="line"
         id="tspan2989-4"
         x="112.75128"
         y="704.84943">Person</tspan><tspan
         sodipodi:role="line"
         x="112.75128"
         y="749.84943"
         id="tspan2991-0">Dao</tspan></text>
    <rect
       style="fill:#f9f9f9;fill-rule:evenodd;stroke:#000000;stroke-width:1.39661098px;stroke-linecap:butt;stroke-linejoin:miter;stroke-opacity:1"
       id="rect2985-1-9"
       width="231.93848"
       height="141.02473"
       x="422.44211"
       y="463.64151" />
    <text
       xml:space="preserve"
       style="font-size:36px;font-style:normal;font-weight:normal;line-height:125%;letter-spacing:0px;word-spacing:0px;fill:#000000;fill-opacity:1;stroke:none;font-family:Sans"
       x="485.49762"
       y="519.99152"
       id="text2987-7-4"
       sodipodi:linespacing="125%"><tspan
         sodipodi:role="line"
         id="tspan2989-4-8"
         x="485.49762"
         y="519.99152">Person</tspan><tspan
         sodipodi:role="line"
         x="485.49762"
         y="564.99152"
         id="tspan2991-0-8">View</tspan></text>
    <text
       xml:space="preserve"
       style="font-size:40px;font-style:normal;font-weight:normal;line-height:125%;letter-spacing:0px;word-spacing:0px;writing-mode:lr-tb;fill:#000000;fill-opacity:1;stroke:none;font-family:Sans"
       x="484.87323"
       y="589.71234"
       id="text3047"
       sodipodi:linespacing="125%"><tspan
         sodipodi:role="line"
         id="tspan3049"
         x="484.87323"
         y="589.71234"
         style="font-size:24px">(interface)</tspan></text>
    <rect
       style="fill:#f9f9f9;fill-rule:evenodd;stroke:#000000;stroke-width:1.39661098px;stroke-linecap:butt;stroke-linejoin:miter;stroke-opacity:1"
       id="rect2985-2"
       width="231.93848"
       height="141.02473"
       x="771.95483"
       y="461.62128" />
    <text
       xml:space="preserve"
       style="font-size:36px;font-style:normal;font-weight:normal;line-height:125%;letter-spacing:0px;word-spacing:0px;fill:#000000;fill-opacity:1;stroke:none;font-family:Sans"
       x="827.93927"
       y="513.93054"
       id="text2987-4"
       sodipodi:linespacing="125%"><tspan
         sodipodi:role="line"
         x="827.93927"
         y="513.93054"
         id="tspan2991-5">Html</tspan><tspan
         sodipodi:role="line"
         x="827.93927"
         y="558.93054"
         id="tspan3080">generator</tspan></text>
    <path
       style="fill:none;stroke:#000000;stroke-width:1px;stroke-linecap:butt;stroke-linejoin:miter;stroke-opacity:1"
       d="m 279.81226,88.50548 65.65991,0 1.01015,127.27922 73.74114,-1.01015"
       id="path3088"
       inkscape:connector-curvature="0"
       transform="translate(0,308.2677)" />
    <path
       style="fill:none;stroke:#000000;stroke-width:1px;stroke-linecap:butt;stroke-linejoin:miter;stroke-opacity:1"
       d="m 407.09148,193.56135 16.16244,21.2132 -15.15229,17.17259"
       id="path3092"
       inkscape:connector-curvature="0"
       transform="translate(0,308.2677)" />
    <path
       style="fill:none;stroke:#000000;stroke-width:1px;stroke-linecap:butt;stroke-linejoin:miter;stroke-opacity:1"
       d="m 654.57885,222.85577 116.16754,0"
       id="path3094"
       inkscape:connector-curvature="0"
       transform="translate(0,308.2677)" />
    <path
       style="fill:none;stroke:#000000;stroke-width:1px;stroke-linecap:butt;stroke-linejoin:miter;stroke-opacity:1"
       d="m 751.55349,204.67302 21.21321,19.1929 -16.16244,20.20305"
       id="path3096"
       inkscape:connector-curvature="0"
       transform="translate(0,308.2677)" />
    <path
       style="fill:none;stroke:#000000;stroke-width:1px;stroke-linecap:butt;stroke-linejoin:miter;stroke-opacity:1"
       d="M 182.83761,169.31768 178.797,338.01316"
       id="path3098"
       inkscape:connector-curvature="0"
       transform="translate(0,308.2677)" />
    <path
       style="fill:none;stroke:#000000;stroke-width:1px;stroke-linecap:butt;stroke-linejoin:miter;stroke-opacity:1"
       d="m 158.59395,318.82026 19.1929,19.1929 20.20305,-21.2132"
       id="path3100"
       inkscape:connector-curvature="0"
       transform="translate(0,308.2677)" />
    <path
       style="fill:#00ffff;fill-opacity:1"
       d="m 50.741033,98.633536 0,-69.700525 114.636977,0 114.63697,0 0.009,69.700525 0.009,69.700524 -114.64618,0 -114.645957,0 0,-69.700524 z m 75.302277,24.794654 c 5.17338,-5.17338 2.3068,-10.48179 -7.14384,-13.22917 -6.1724,-1.79436 -7.95504,-3.99126 -4.99496,-6.15572 2.78907,-2.03942 5.34626,-1.66816 7.96381,1.15623 4.69057,5.06121 7.76357,2.07137 3.25652,-3.16839 -2.03128,-2.361498 -3.16697,-2.775971 -7.60637,-2.775971 -6.3781,0 -9.5598,2.543591 -9.41805,7.529191 0.11885,4.18016 0.79288,4.7704 8.46412,7.41198 5.44425,1.87473 6.4024,2.56328 6.4024,4.60097 0,4.79613 -10.07381,4.82025 -11.32724,0.0271 -0.28959,-1.10737 -1.37853,-2.00815 -2.42763,-2.00815 -2.64351,0 -2.47801,3.80287 0.29389,6.75343 1.81217,1.92895 3.2339,2.33795 8.12714,2.33795 4.94997,0 6.34078,-0.41004 8.41021,-2.47947 z m 20.62286,0.26868 c 2.49523,-2.67831 2.56509,-3.44003 0.39195,-4.27394 -1.0163,-0.38999 -2.41265,0.15965 -3.57488,1.40715 -2.14597,2.30343 -4.86831,2.64383 -6.67721,0.83493 -2.78872,-2.78871 -1.32444,-3.83858 5.35381,-3.83858 l 6.56599,0 0,-2.97412 c 0,-1.68089 -1.05149,-4.19656 -2.41817,-5.78542 -3.18087,-3.69798 -9.55504,-3.95987 -12.98155,-0.53335 -3.04223,3.04223 -3.25104,12.04614 -0.35362,15.24776 2.75866,3.04828 10.82143,2.99857 13.69368,-0.0844 l 0,-10e-6 z m 9.13073,-3.76751 c 0,-7.56773 0.63795,-9.17399 3.64361,-9.17399 1.32951,0 2.44624,-0.56821 2.48161,-1.26269 0.0353,-0.69448 1.56172,2.60114 3.39187,7.3236 2.49583,6.44018 3.8363,8.66277 5.36296,8.89225 1.22194,0.18367 2.32541,-0.4219 2.76104,-1.51523 0.3991,-1.00165 2.03652,-5.34409 3.6387,-9.64986 l 2.91305,-7.82868 -2.39047,0 c -1.65445,0 -2.57065,0.71795 -2.97569,2.33179 -0.32189,1.28248 -1.33209,4.11922 -2.2449,6.30387 l -1.65964,3.97208 -2.25768,-6.05044 c -2.06986,-5.54708 -2.55146,-6.09819 -5.78894,-6.62442 -1.94219,-0.3157 -5.19285,-0.38001 -7.22369,-0.14292 l -3.69244,0.43107 0,9.48593 c 0,8.8125 0.14343,9.48594 2.0203,9.48594 1.79273,0 2.02031,-0.67344 2.02031,-5.9783 z m 30.30457,-7.15369 c 0,-12.45855 -0.1036,-13.131981 -2.0203,-13.131981 -1.9167,0 -2.02031,0.673431 -2.02031,13.131981 0,12.45855 0.10361,13.13199 2.02031,13.13199 1.9167,0 2.0203,-0.67344 2.0203,-13.13199 z m 18.35575,11.46019 c 2.29152,-2.0738 2.36679,-3.97363 0.19049,-4.80875 -1.04126,-0.39957 -2.18843,0.12322 -3.08773,1.40715 -1.71195,2.44414 -4.61686,2.63875 -6.80005,0.45555 -2.72048,-2.72047 -1.80676,-3.36146 5.23114,-3.66976 7.37385,-0.32302 7.18477,-0.10317 5.74399,-6.67871 -0.6139,-2.80174 -6.61996,-5.64073 -9.85874,-4.6601 -4.73181,1.43269 -6.74439,4.47826 -6.74439,10.20605 0,7.08153 2.17471,9.42037 8.7593,9.42037 2.97321,0 5.40201,-0.61841 6.56599,-1.6718 z m 13.26112,-0.31239 c -0.28538,-1.0913 -1.03832,-1.88679 -1.6732,-1.76776 -0.74066,0.13886 -1.26209,-2.04602 -1.45506,-6.09704 -0.24554,-5.15458 -0.0137,-6.31346 1.26269,-6.31346 0.85989,0 1.56343,-0.68185 1.56343,-1.51522 0,-0.83338 -0.68185,-1.51523 -1.51523,-1.51523 -1.06112,0 -1.51522,-1.07022 -1.51522,-3.57108 0,-3.25805 -0.17709,-3.476297 -2.02031,-2.48984 -1.18142,0.63228 -2.0203,2.11508 -2.0203,3.57108 0,1.36941 -0.45457,2.48984 -1.01016,2.48984 -0.55558,0 -1.01015,0.68185 -1.01015,1.51523 0,0.83337 0.45457,1.51522 1.01015,1.51522 0.58161,0 1.01016,3.1427 1.01016,7.40779 0,4.07428 0.30304,7.71083 0.67343,8.08122 0.37039,0.37039 2.1461,0.67344 3.94604,0.67344 2.75542,0 3.1906,-0.31358 2.75373,-1.98419 l 0,0 z M 146.24636,78.981478 c 1.36371,-1.363706 2.47947,-2.954696 2.47947,-3.535534 0,-1.682983 -4.77128,-1.221102 -5.44202,0.526811 -0.87495,2.280092 -5.62249,1.431877 -7.44605,-1.330342 l -1.50049,-2.272843 7.32645,0 7.32645,0 -0.60652,-3.788072 c -0.33359,-2.08344 -1.57985,-4.583567 -2.76946,-5.555839 -2.15671,-1.762679 -7.37783,-2.330755 -10.48016,-1.140279 -2.36214,0.906436 -4.59095,5.764461 -4.59095,10.006654 0,8.116426 10.11139,12.681339 15.70328,7.089444 z m 30.12244,0.385843 c 5.17782,-4.072872 3.00991,-8.25056 -5.71821,-11.019319 -3.12777,-0.9922 -3.61676,-1.478191 -2.65423,-2.637963 1.52828,-1.841468 3.39637,-1.806331 4.97313,0.09354 1.59796,1.925427 5.05076,1.974753 5.05076,0.07216 0,-2.720321 -3.07844,-4.617843 -7.49173,-4.617843 -9.22392,0 -10.35093,7.987701 -1.58331,11.221645 5.52245,2.036959 6.72514,4.940796 2.04634,4.940796 -1.8559,0 -3.37359,-0.618573 -3.71767,-1.515229 -0.87143,-2.270884 -4.40591,-1.911654 -4.40591,0.447797 0,4.777727 8.76983,6.735826 13.50083,3.01442 z m 19.10478,0.06931 c 4.55913,-3.586212 4.5198,-13.31609 -0.0679,-16.8016 -2.99995,-2.279206 -9.65393,-1.705268 -12.24847,1.056489 -2.61633,2.784966 -3.22596,9.7496 -1.18689,13.559641 2.33376,4.36065 9.30383,5.488741 13.50326,2.18547 l -2e-5,0 z m -83.11324,-4.0366 0,-5.050763 5.60175,0 c 6.74002,0 10.56069,-2.923639 10.56069,-8.08122 0,-1.968154 -0.91652,-4.038809 -2.47947,-5.601756 -2.19438,-2.194379 -3.35583,-2.479465 -10.10152,-2.479465 l -7.62206,0 0,13.131983 c 0,12.458548 0.1036,13.131983 2.0203,13.131983 1.75093,0 2.02031,-0.673435 2.02031,-5.050762 z m 43.43656,-1.313199 c 0,-6.520374 1.06698,-8.788327 4.13456,-8.788327 1.76004,0 3.26783,-2.362425 2.19347,-3.436775 -0.33211,-0.332109 -2.80091,-0.603835 -5.48624,-0.603835 l -4.8824,0 0,9.596449 c 0,8.923014 0.14177,9.596449 2.0203,9.596449 1.80652,0 2.02031,-0.673435 2.02031,-6.363961 z m 50.50762,-0.656912 c 0,-5.596179 0.35343,-7.21866 1.74169,-7.995567 1.10487,-0.618321 2.39756,-0.623679 3.53553,-0.01466 1.45476,0.778572 1.79385,2.289942 1.79385,7.995572 0,6.362091 0.19339,7.035526 2.02031,7.035526 1.86119,0 2.0203,-0.673435 2.0203,-8.550755 0,-10.112738 -0.44339,-10.578965 -9.93291,-10.444413 l -6.22953,0.08833 0,9.453421 c 0,9.410212 0.0115,9.453419 2.52538,9.453419 2.45151,0 2.52538,-0.205377 2.52538,-7.020873 l 0,0 z"
       id="path3102"
       inkscape:connector-curvature="0"
       transform="translate(0,308.2677)" />
    <path
       style="fill:#00ffff;fill-opacity:1"
       d="m 193.82074,112.26188 c 0.8023,-2.09076 5.10647,-3.0182 6.94106,-1.49563 2.56552,2.12919 1.67741,3.01957 -3.01187,3.01957 -3.60889,0 -4.39673,-0.30556 -3.92919,-1.52394 z"
       id="path3104"
       inkscape:connector-curvature="0"
       transform="translate(0,308.2677)" />
    <path
       style="fill:#00ffff;fill-opacity:1"
       d="m 135.82233,112.5953 c 0.74175,-2.22526 3.67596,-3.43072 5.51977,-2.26767 3.33281,2.10228 2.66326,3.45819 -1.70764,3.45819 -2.78215,0 -4.07444,-0.40358 -3.81213,-1.19052 z"
       id="path3106"
       inkscape:connector-curvature="0"
       transform="translate(0,308.2677)" />
    <path
       style="fill:#00ffff;fill-opacity:1"
       d="m 112.36034,62.268045 0,-4.040611 4.47353,0 c 4.18754,0 7.6483,1.828328 7.6483,4.040611 0,2.212282 -3.46076,4.04061 -7.6483,4.04061 l -4.47353,0 0,-4.04061 z"
       id="path3108"
       inkscape:connector-curvature="0"
       transform="translate(0,308.2677)" />
    <path
       style="fill:#00ffff;fill-opacity:1"
       d="m 135.59385,67.859425 c 0,-3.873933 6.95347,-3.92636 8.43575,-0.0636 0.47675,1.242396 -0.28787,1.54329 -3.92177,1.54329 -3.29081,0 -4.51398,-0.400958 -4.51398,-1.479687 z"
       id="path3112"
       inkscape:connector-curvature="0"
       transform="translate(0,308.2677)" />
    <path
       style="fill:#00ffff;fill-opacity:1"
       d="m 186.13702,75.466436 c -2.36443,-4.417976 -0.0906,-11.178086 3.75991,-11.178086 3.62301,0 5.95389,9.039495 3.07358,11.9198 -1.85577,1.855771 -5.66462,1.442356 -6.83349,-0.741714 z"
       id="path3116"
       inkscape:connector-curvature="0"
       transform="translate(0,308.2677)" />
    <path
       style="fill:#00ffff;fill-opacity:1"
       d="m 54.781643,409.76052 0,-69.70053 114.652317,0 114.65231,0 0,69.70053 0,69.70053 -114.65231,0 -114.652317,0 0,-69.70053 z m 78.693217,29.88881 c 5.02558,-4.54809 5.05489,-15.99664 0.0537,-20.99778 -2.60203,-2.60203 -3.44696,-2.83011 -10.48397,-2.83011 l -7.65384,0 0,13.23894 0,13.23894 7.97827,-0.36231 c 6.07383,-0.27583 8.48612,-0.82191 10.10579,-2.28768 l 0,0 z m 23.57671,-4.53189 c -0.51056,-10.09536 -0.83328,-10.91903 -4.78975,-12.22479 -5.65202,-1.86533 -11.61721,0.77048 -11.61721,5.13323 0,1.54308 3.78183,1.03863 4.40591,-0.58769 0.69602,-1.81381 4.80167,-2.00511 6.50374,-0.30305 1.97382,1.97382 1.44448,2.53314 -3.08097,3.25546 -5.97291,0.95334 -8.83883,3.04966 -8.83883,6.4653 0,4.41625 1.63075,5.23705 10.08568,5.07636 l 7.66871,-0.14573 -0.33728,-6.66909 0,0 z m 18.53928,4.8416 c 2.90048,-3.20499 2.68853,-12.20561 -0.35919,-15.25333 -3.10159,-3.10158 -9.48088,-2.97565 -12.91979,0.25503 -3.38213,3.17734 -3.53518,11.31957 -0.27798,14.78671 3.003,3.19655 10.74624,3.31741 13.55696,0.21159 l 0,0 z m -22.27342,-44.79982 c 1.3637,-1.3637 2.47947,-2.95469 2.47947,-3.53553 0,-1.68298 -4.77129,-1.2211 -5.44202,0.52681 -0.87496,2.28009 -5.6225,1.43188 -7.44606,-1.33034 l -1.50048,-2.27284 7.32645,0 7.32644,0 -0.60651,-3.78808 c -0.33359,-2.08343 -1.57985,-4.58356 -2.76947,-5.55583 -2.15671,-1.76268 -7.37782,-2.33076 -10.48015,-1.14028 -2.36214,0.90643 -4.59095,5.76446 -4.59095,10.00665 0,8.11643 10.11139,12.68134 15.70328,7.08944 z m 30.12243,0.38585 c 5.17782,-4.07287 3.00991,-8.25056 -5.7182,-11.01932 -3.12777,-0.9922 -3.61676,-1.47819 -2.65423,-2.63796 1.52828,-1.84147 3.39637,-1.80634 4.97313,0.0935 1.59796,1.92542 5.05076,1.97475 5.05076,0.0721 0,-2.72032 -3.07844,-4.61784 -7.49173,-4.61784 -9.22392,0 -10.35094,7.9877 -1.58331,11.22164 5.52245,2.03696 6.72513,4.9408 2.04634,4.9408 -1.8559,0 -3.3736,-0.61857 -3.71768,-1.51523 -0.87142,-2.27088 -4.40591,-1.91165 -4.40591,0.4478 0,4.77772 8.76983,6.73582 13.50083,3.01442 z m 19.10479,0.0693 c 4.55913,-3.58621 4.5198,-13.31609 -0.0679,-16.8016 -2.99995,-2.2792 -9.65392,-1.70526 -12.24846,1.05649 -2.61633,2.78497 -3.22596,9.7496 -1.18689,13.55964 2.33376,4.36065 9.30383,5.48875 13.50326,2.18547 l -2e-5,0 z m -83.11324,-4.0366 0,-5.05076 5.60175,0 c 6.74002,0 10.56069,-2.92364 10.56069,-8.08122 0,-1.96815 -0.91652,-4.03881 -2.47947,-5.60175 -2.19438,-2.19438 -3.35584,-2.47947 -10.10152,-2.47947 l -7.62206,0 0,13.13198 c 0,12.45855 0.1036,13.13199 2.0203,13.13199 1.75093,0 2.02031,-0.67344 2.02031,-5.05077 z m 43.43656,-1.31319 c 0,-6.52038 1.06698,-8.78833 4.13456,-8.78833 1.76004,0 3.26782,-2.36243 2.19347,-3.43678 -0.33211,-0.33211 -2.80092,-0.60383 -5.48624,-0.60383 l -4.8824,0 0,9.59645 c 0,8.92301 0.14177,9.59645 2.0203,9.59645 1.80652,0 2.02031,-0.67344 2.02031,-6.36396 z m 50.50762,-0.65692 c 0,-5.59618 0.35342,-7.21866 1.74169,-7.99556 1.10487,-0.61832 2.39755,-0.62368 3.53553,-0.0147 1.45476,0.77857 1.79385,2.28994 1.79385,7.99557 0,6.36209 0.19338,7.03553 2.02031,7.03553 1.86119,0 2.0203,-0.67344 2.0203,-8.55076 0,-10.11274 -0.4434,-10.57896 -9.93291,-10.44441 l -6.22953,0.0883 0,9.45342 c 0,9.41021 0.0115,9.45342 2.52538,9.45342 2.45151,0 2.52538,-0.20538 2.52538,-7.02088 l 0,0 z"
       id="path3118"
       inkscape:connector-curvature="0"
       transform="translate(0,308.2677)" />
    <path
       style="fill:#00ffff;fill-opacity:1"
       d="m 193.56373,392.76874 c -2.26416,-2.26416 -2.7674,-6.51859 -1.1417,-9.65206 1.86294,-3.59075 6.88515,-3.5271 8.79314,0.11143 0.97728,1.86368 1.03991,6.1769 0.11669,8.03572 -0.90114,1.81436 -2.61636,2.85714 -4.69955,2.85714 -1.51006,0 -1.87886,-0.16252 -3.06858,-1.35223 l 0,0 z"
       id="path3122"
       inkscape:connector-curvature="0"
       transform="translate(0,308.2677)" />
    <path
       style="fill:#00ffff;fill-opacity:1"
       d="m 141.78571,384.82103 c 0,-0.20425 0.3316,-1.02136 0.73689,-1.8158 1.361,-2.66777 4.70463,-3.4432 7.21027,-1.67216 1.07706,0.7613 1.47547,1.38712 1.83167,2.87719 l 0.23478,0.98214 -5.0068,0 c -3.22766,0 -5.00681,-0.13196 -5.00681,-0.37137 z"
       id="path3124"
       inkscape:connector-curvature="0"
       transform="translate(0,308.2677)" />
    <path
       style="fill:#00ffff;fill-opacity:1"
       d="m 119.28571,378.58526 0,-4.46429 4.48203,0 c 5.05207,0 6.20012,0.35411 7.15885,2.20809 0.77323,1.49526 0.49582,3.97942 -0.57123,5.11524 -1.03483,1.10153 -3.44928,1.60524 -7.69437,1.60524 l -3.37528,0 0,-4.46428 z"
       id="path3126"
       inkscape:connector-curvature="0"
       transform="translate(0,308.2677)" />
    <path
       style="fill:#00ffff;fill-opacity:1"
       d="m 119.28571,428.76383 0,-9.64286 3.83929,0.002 c 4.77527,0.002 6.14153,0.36797 7.60458,2.03429 1.85776,2.11587 2.26239,3.44244 2.26569,7.42801 0.002,2.96771 -0.13774,3.88977 -0.82939,5.45467 -1.5452,3.49607 -3.37338,4.36158 -9.21945,4.36476 l -3.66072,0.002 0,-9.64286 z"
       id="path3128"
       inkscape:connector-curvature="0"
       transform="translate(0,308.2677)" />
    <path
       style="fill:#00ffff;fill-opacity:1"
       d="m 166.13642,438.39583 c -1.83433,-1.11836 -2.66557,-3.36834 -2.51,-6.79402 0.13521,-2.97748 0.62702,-4.03447 2.54269,-5.46472 1.27456,-0.9516 3.88722,-0.9516 5.16178,0 1.91567,1.43025 2.40748,2.48724 2.54269,5.46472 0.21534,4.74185 -1.67598,7.51649 -5.12358,7.51649 -0.80535,0 -1.94554,-0.31518 -2.61358,-0.72247 l 0,0 z"
       id="path3130"
       inkscape:connector-curvature="0"
       transform="translate(0,308.2677)" />
    <path
       style="fill:#00ffff;fill-opacity:1"
       d="m 145.81069,439.242 c -0.94283,-0.19987 -2.23926,-1.73368 -2.23926,-2.64928 0,-1.47654 1.47656,-2.46345 4.46428,-2.98386 1.57143,-0.27372 3.29911,-0.60932 3.83929,-0.74578 0.93943,-0.23732 0.98214,-0.19053 0.98214,1.07591 0,1.81118 -0.92115,3.60228 -2.28665,4.44621 -1.1996,0.74139 -3.41936,1.14096 -4.7598,0.8568 l 0,0 z"
       id="path3132"
       inkscape:connector-curvature="0"
       transform="translate(0,308.2677)" />
    <path
       style="fill:#00ffff;fill-opacity:1"
       d="m 423.21429,255.62097 c 0,-31.03135 0.0975,-40.02606 0.43748,-40.36606 0.34522,-0.34521 0.34522,-0.58522 0,-1.13801 -0.33574,-0.5376 -0.43748,-7.34667 -0.43748,-29.2768 l 0,-28.57627 115.17857,0 115.17857,0 0,69.64286 0,69.64285 -115.17857,0 -115.17857,0 0,-39.92857 z m 67.65045,28.38279 c -2.8214,-5.94107 -2.8684,-11.29134 -0.14909,-16.97066 0.78497,-1.6394 1.42721,-3.05632 1.42721,-3.14872 0,-0.0924 -0.4414,-0.11714 -0.9809,-0.055 -0.7568,0.0872 -1.24746,0.56002 -2.14776,2.06971 -2.06902,3.4695 -2.69284,5.56195 -2.71732,9.11473 -0.0262,3.80263 0.61047,6.18274 2.50779,9.375 1.11773,1.8806 1.4823,2.23214 2.31483,2.23214 l 0.98815,0 -1.24291,-2.61721 0,0 z m 98.05854,1.55321 c 0.4167,-0.5852 1.26075,-2.15216 1.87567,-3.48214 0.95914,-2.07448 1.13914,-2.92571 1.2666,-5.98957 0.17124,-4.11662 -0.49854,-6.70348 -2.65853,-10.26786 -0.96613,-1.5943 -1.43835,-2.05357 -2.11145,-2.05357 -1.10554,0 -1.09146,0.17769 0.21539,2.71769 2.87428,5.58646 2.87174,11.92885 -0.007,17.63173 -0.59143,1.17162 -1.07533,2.21515 -1.07533,2.31896 0,0.10382 0.39085,0.18876 0.86854,0.18876 0.55606,0 1.14112,-0.3828 1.62618,-1.064 l 0,0 z m -71.10708,-3.90313 c 0.82431,-0.52205 0.20069,-2.17573 -0.82051,-2.17573 -1.14378,0 -1.2814,-0.52097 -1.2814,-4.85063 l 0,-3.72079 1.07142,0 c 0.95239,0 1.07143,-0.11905 1.07143,-1.07143 0,-0.95238 -0.11904,-1.07143 -1.07143,-1.07143 l -1.07142,0 0,-2.17793 0,-2.17793 -1.16072,0.73224 c -0.95109,0.6 -1.18054,0.99332 -1.27053,2.17793 -0.0878,1.15564 -0.24901,1.44569 -0.80358,1.44569 -0.53273,0 -0.69375,0.24867 -0.69375,1.07143 0,0.80568 0.16444,1.07143 0.66297,1.07143 0.601,0 0.68119,0.42562 0.85798,4.55357 0.10725,2.50446 0.30488,4.82603 0.43918,5.15905 0.41652,1.03287 3.0258,1.69605 4.07036,1.03453 l 0,0 z m 10.03383,-0.30128 c 1.10717,-0.55626 2.86426,-2.5975 2.86426,-3.32746 0,-0.15177 -0.48111,-0.38161 -1.06913,-0.51076 -0.91347,-0.20064 -1.24459,-0.0488 -2.27431,1.04305 -1.35319,1.43479 -2.72764,1.6671 -4.11482,0.69548 -0.68985,-0.48319 -1.82746,-2.44791 -1.82746,-3.15614 0,-0.10453 2.08929,-0.19004 4.64286,-0.19004 l 4.64286,0 0,-1.3724 c 0,-1.88844 -1.34895,-4.2972 -2.86048,-5.10784 -1.76658,-0.94743 -4.56544,-0.88204 -6.08526,0.14216 -3.10307,2.09117 -3.77384,7.36076 -1.33208,10.46495 1.5009,1.90809 5.00143,2.53089 7.41356,1.319 z m 26.9716,-0.23459 c 1.07467,-0.70415 1.2498,-0.70874 1.2498,-0.0327 0,0.38768 0.39822,0.53571 1.44113,0.53571 1.31414,0 1.40856,-0.0609 1.07143,-0.69081 -0.20334,-0.37994 -0.3697,-2.5256 -0.3697,-4.76813 0,-2.24253 -0.17814,-4.58834 -0.39587,-5.2129 -0.53232,-1.52701 -1.94142,-2.18542 -4.67568,-2.18475 -2.57748,7.2e-4 -4.35779,0.74887 -5.20282,2.18666 -1.20993,2.05863 0.91469,2.98298 2.36075,1.02707 0.69448,-0.93933 1.00996,-1.07142 2.55893,-1.07142 1.48901,0 1.85849,0.13994 2.35001,0.8901 0.92332,1.40916 0.46504,1.81796 -2.58833,2.30888 -4.38966,0.70577 -5.47842,1.52505 -5.47842,4.12244 0,2.69188 1.52608,3.85389 4.74491,3.61295 1.13648,-0.0851 2.45672,-0.41046 2.93386,-0.72309 l 0,0 z m 13.95805,0.28641 c 1.32176,-0.62722 2.64889,-2.46336 2.64889,-3.66485 0,-0.60967 -0.21576,-0.76142 -1.08263,-0.76142 -0.70896,0 -1.15878,0.21573 -1.30323,0.625 -0.78981,2.23788 -3.34973,2.95759 -4.92319,1.38413 -1.11916,-1.11915 -1.49741,-3.62308 -0.85434,-5.65545 0.86187,-2.72388 4.20025,-3.45989 5.24937,-1.15733 0.31325,0.68753 0.66826,0.87508 1.65636,0.87508 0.81869,0 1.25766,-0.16855 1.25766,-0.4829 0,-0.78659 -1.55918,-2.86443 -2.51072,-3.34591 -1.31622,-0.66602 -4.26907,-0.56182 -5.6911,0.20082 -3.00872,1.61359 -3.78113,7.53621 -1.38083,10.5877 1.4875,1.89105 4.57818,2.51292 6.93376,1.39513 l 0,0 z m 13.30065,-0.45317 c 1.35302,-0.96344 2.18117,-2.82904 1.45881,-3.28633 -0.69522,-0.4401 -2.11057,-0.41076 -2.11057,0.0438 0,0.81231 -1.77027,2.12663 -2.86439,2.12663 -1.48735,0 -2.37492,-0.52189 -3.02477,-1.77857 -1.08893,-2.10577 -1.00406,-2.15 4.12533,-2.15 l 4.66474,0 -0.23939,-1.69643 c -0.49191,-3.48576 -2.53036,-5.44683 -5.66076,-5.44588 -3.87743,0.001 -5.91307,2.24579 -5.92345,6.53153 -0.008,3.17284 0.83102,4.87775 2.92479,5.94545 1.92821,0.98327 5.05277,0.84694 6.64966,-0.29015 l 0,0 z m -85.29462,-5.75881 0,-6.42857 -1.25,0 -1.25,0 0,6.42857 0,6.42857 1.25,0 1.25,0 0,-6.42857 z m 5.41805,1.75335 c 0.11105,-4.41243 0.16506,-4.71356 0.9608,-5.35715 1.0372,-0.83886 2.80751,-0.88254 3.68232,-0.0908 0.57058,0.51637 0.65312,1.19342 0.65312,5.35715 l 0,4.76607 1.25,0 1.25,0 0,-5.01773 c 0,-5.50023 -0.30625,-6.66183 -1.95431,-7.41274 -1.42269,-0.64822 -3.78649,-0.51671 -5.09926,0.2837 -1.1574,0.70568 -1.16072,0.70568 -1.16072,-0.001 0,-0.54963 -0.24073,-0.70894 -1.07142,-0.70894 l -1.07143,0 0,6.42857 0,6.42857 1.22162,0 1.22161,0 0.11767,-4.67522 0,0 z m 33.20594,0.24818 c 0.10843,-3.80925 0.22511,-4.53651 0.83615,-5.21149 0.54693,-0.60414 0.97636,-0.74124 1.86846,-0.59647 0.63707,0.10338 1.2511,0.0378 1.36451,-0.14566 0.11341,-0.18349 0.59849,-0.33362 1.07797,-0.33362 l 0.87178,0 0,5.35714 0,5.35714 1.25,0 1.25,0 0,-5.35714 0,-5.35714 1.25,0 c 1.15079,0 1.25,-0.085 1.25,-1.07143 0,-0.9864 -0.0992,-1.07143 -1.25,-1.07143 -1.06625,0 -1.25,-0.12075 -1.25,-0.82143 0,-1.14072 0.65229,-1.67857 2.03572,-1.67857 1.06161,0 1.17857,-0.10249 1.17857,-1.03271 0,-1.2836 -1.1401,-1.66867 -3.25468,-1.09927 -1.1392,0.30675 -1.54909,0.64414 -1.95091,1.60583 -0.27978,0.66962 -0.5087,1.62444 -0.5087,2.12182 0,0.96819 -0.30411,1.05119 -3.33227,0.90955 -0.87161,-0.0408 -1.61675,0.16114 -2.05357,0.55646 -0.62611,0.56663 -0.68559,0.56918 -0.68559,0.0294 0,-0.43741 -0.32495,-0.59107 -1.25,-0.59107 l -1.25,0 0,6.42857 0,6.42857 1.21328,0 1.21328,0 0.126,-4.42704 0,0 z m -38.62399,-11.64439 c 0,-1.39455 -0.0297,-1.42857 -1.25,-1.42857 -1.22023,0 -1.25,0.034 -1.25,1.42857 0,1.39456 0.0297,1.42857 1.25,1.42857 1.22024,0 1.25,-0.034 1.25,-1.42857 z m 35.20029,-9.02106 c 1.57749,-0.82292 3.29251,-2.69424 3.75585,-4.09816 0.22042,-0.66789 0.34457,-1.2613 0.27589,-1.31868 -0.0687,-0.0574 -0.84936,-0.19892 -1.73483,-0.31453 -1.5824,-0.2066 -1.62414,-0.18555 -2.43857,1.22955 -0.83973,1.45906 -2.47582,2.45145 -4.04154,2.45145 -1.65277,0 -3.79968,-1.4062 -4.56705,-2.99136 -0.40466,-0.83593 -0.73575,-1.86744 -0.73575,-2.29225 0,-0.76165 0.0956,-0.77374 6.875,-0.86939 l 6.875,-0.097 -0.0825,-1.25 c -0.29782,-4.51348 -1.47491,-6.77625 -4.33469,-8.33274 -2.19119,-1.19259 -5.81696,-1.31759 -8.10276,-0.27935 -1.89188,0.85931 -3.87904,3.21525 -4.4902,5.32347 -0.65006,2.24242 -0.56237,6.45672 0.17449,8.38617 0.72699,1.90359 2.87924,4.06547 4.73403,4.75521 1.77417,0.65976 6.33016,0.48398 7.83761,-0.30239 z m -27.65805,-12.40751 c 2.72633,-6.97321 4.95713,-12.79911 4.95736,-12.94643 2.2e-4,-0.14732 -0.84335,-0.26705 -1.8746,-0.26606 l -1.875,0.002 -4.08633,11.07444 -4.08634,11.07444 -1.84245,-5.27267 c -1.01336,-2.89996 -2.77389,-7.88427 -3.91231,-11.07623 l -2.06984,-5.80357 -2.09544,0 -2.09544,0 0.47843,1.16071 c 0.26314,0.63839 2.54544,6.51159 5.07177,13.05154 l 4.59334,11.89082 1.93995,-0.10511 1.93995,-0.1051 4.95695,-12.67857 z m 11.02919,3.39286 0,-9.46429 -1.78571,0 -1.78572,0 0,9.46429 0,9.46428 1.78572,0 1.78571,0 0,-9.46428 z m 32.1641,6.96428 c 0.34483,-1.27678 1.14745,-4.30096 1.78361,-6.72039 l 1.15666,-4.39897 1.19963,4.57754 c 0.65979,2.51765 1.45942,5.582 1.77695,6.80968 l 0.57732,2.23214 1.83158,-0.005 1.83158,-0.005 2.90814,-9.37 2.90813,-9.37001 -1.60723,-0.11042 c -0.88398,-0.0607 -1.67402,-0.0436 -1.75564,0.038 -0.0816,0.0816 -1.01876,3.08126 -2.08253,6.66587 -1.06378,3.5846 -2.00316,6.58648 -2.08752,6.67085 -0.0844,0.0844 -0.25865,-0.37452 -0.38731,-1.01973 -0.12865,-0.64522 -0.89701,-3.71194 -1.70745,-6.81494 l -1.47353,-5.64182 -1.82182,0.10611 -1.82181,0.10611 -1.83986,6.78572 c -1.01192,3.73214 -1.93587,6.54464 -2.05321,6.25 -0.11734,-0.29464 -0.98644,-3.34822 -1.93133,-6.78572 l -1.71798,-6.25 -1.88413,-0.109 c -1.72412,-0.0997 -1.86549,-0.0503 -1.66461,0.58266 0.12073,0.38041 1.26629,4.12589 2.54568,8.32329 1.27938,4.19739 2.49502,8.16182 2.70142,8.80984 0.3663,1.15012 0.41834,1.17568 2.18177,1.07143 l 1.80653,-0.10679 0.62696,-2.32143 z m -32.1641,-21.60714 0,-1.96428 -1.78571,0 -1.78572,0 0,1.96428 0,1.96429 1.78572,0 1.78571,0 0,-1.96429 z m 7.55056,-20.9502 c 1.89967,-0.56915 4.03218,-2.48634 4.74378,-4.26479 0.32598,-0.81472 0.54579,-1.51897 0.48847,-1.56499 -0.0573,-0.046 -0.85462,-0.18182 -1.77176,-0.30177 -1.61269,-0.21092 -1.69149,-0.17745 -2.39675,1.01788 -2.57568,4.36544 -8.40819,2.9904 -9.50014,-2.2397 l -0.24234,-1.16071 6.99266,0 6.99267,0 0,-1.54233 c 0,-3.74031 -1.96539,-7.20981 -4.81837,-8.5059 -2.15895,-0.98078 -6.05208,-0.90135 -8.07189,0.16472 -3.03544,1.6021 -4.60974,4.78116 -4.60974,9.30861 0,4.70369 2.17115,7.98407 6.06911,9.16977 1.38396,0.42099 4.59073,0.37868 6.1243,-0.0808 l 0,0 z m 31.94797,-0.43993 c 2.41604,-1.12499 3.35862,-2.63923 3.35862,-5.39557 0,-3.0268 -1.119,-3.96937 -6.55385,-5.52052 -4.63,-1.32144 -5.58822,-1.98474 -4.93578,-3.41669 0.47735,-1.04767 1.71519,-1.60066 3.56645,-1.59325 1.72104,0.007 2.99013,0.6757 3.56767,1.88018 0.34658,0.72282 0.72786,0.9717 1.48864,0.9717 2.29394,0 2.74387,-0.99008 1.42958,-3.14577 -1.04624,-1.71603 -3.15062,-2.55283 -6.41986,-2.55283 -4.70712,0 -7.13864,1.83105 -7.14152,5.37792 -0.002,2.69345 1.05197,3.88058 4.46809,5.03173 1.5686,0.52857 3.52279,1.13049 4.34264,1.33757 1.76208,0.44509 2.61651,1.1986 2.61651,2.30749 0,2.07024 -3.53048,3.3389 -6.1943,2.22589 -1.00917,-0.42165 -1.5038,-0.92945 -1.95351,-2.00551 l -0.60219,-1.4409 -1.60715,0.22796 c -0.88392,0.12538 -1.67052,0.28415 -1.74798,0.35282 -0.34253,0.30361 1.14217,3.32534 2.0712,4.21541 2.22933,2.13584 6.97656,2.66509 10.24674,1.14237 z m 17.71332,0.43441 c 0.77101,-0.231 2.10339,-1.03752 2.96082,-1.79227 2.11395,-1.86077 2.86114,-3.90038 2.86221,-7.81298 7.2e-4,-2.70179 -0.12552,-3.30804 -1.07606,-5.16667 -1.46342,-2.86149 -3.57379,-4.199 -6.92402,-4.3883 -2.98151,-0.16848 -4.84199,0.32728 -6.56302,1.74882 -2.06681,1.70714 -2.85928,3.56325 -3.03867,7.11712 -0.18111,3.58771 0.24274,5.41818 1.72998,7.47125 2.00573,2.76883 6.24997,3.96118 10.04876,2.82303 z m -80.78328,-5.06646 0,-5.12933 5.1564,-0.17506 c 4.64484,-0.15769 5.34461,-0.26791 7.05357,-1.11105 2.19495,-1.08291 3.2999,-2.52782 3.86115,-5.04911 0.77207,-3.46837 -0.5417,-6.84903 -3.26824,-8.40996 -1.49445,-0.85557 -1.83169,-0.89356 -8.96359,-1.00952 l -7.41071,-0.12049 0,13.06692 0,13.06692 1.78571,0 1.78571,0 0,-5.12932 z m 43.57143,-0.88881 c 0,-6.28172 0.28579,-8.00044 1.50835,-9.07115 0.79721,-0.69819 2.46329,-0.81822 3.51851,-0.25349 0.72061,0.38566 1.0457,-0.0787 1.59927,-2.28428 0.25906,-1.03217 -0.98184,-1.65866 -3.28536,-1.65866 -1.35803,0 -1.79617,0.18258 -2.66176,1.1092 L 535,194.9108 l 0,-0.93063 c 0,-0.86487 -0.11356,-0.93063 -1.60714,-0.93063 l -1.60715,0 0,9.46429 0,9.46428 1.78572,0 1.78571,0 0,-6.01813 0,0 z m 50.00785,-0.14258 c 0.01,-7.57294 0.36706,-8.73495 2.99555,-9.73879 2.02667,-0.77398 3.54984,-0.44013 4.63883,1.01675 0.69217,0.926 0.75924,1.54469 0.86114,7.94348 l 0.11051,6.93927 1.80001,0 1.80002,0 -0.13448,-7.58928 c -0.14893,-8.40478 -0.31646,-9.11535 -2.51889,-10.68362 -0.89994,-0.64082 -1.75803,-0.85918 -3.77674,-0.96113 -2.41052,-0.12172 -2.74843,-0.0472 -4.37657,0.96488 L 585,194.80575 l 0,-0.8781 c 0,-0.80262 -0.13815,-0.87811 -1.60714,-0.87811 l -1.60715,0 0,9.46429 0,9.46428 1.78572,0 1.78571,0 0.008,-6.16071 -10e-6,0 z"
       id="path3134"
       inkscape:connector-curvature="0"
       transform="translate(0,308.2677)" />
    <path
       style="fill:#00ffff;fill-opacity:1"
       d="m 491.78571,193.54389 0,-4.50565 4.76078,0.13912 c 5.27558,0.15416 6.18185,0.46794 7.23531,2.5051 0.70902,1.37109 0.4947,3.59978 -0.44796,4.65838 -1.20411,1.3522 -2.71694,1.7087 -7.25094,1.7087 l -4.29719,0 0,-4.50565 z"
       id="path3136"
       inkscape:connector-curvature="0"
       transform="translate(0,308.2677)" />
    <path
       style="fill:#00ffff;fill-opacity:1"
       d="m 514.7847,199.38883 c 0.35793,-1.79754 2.30538,-3.52368 4.21878,-3.73935 2.57904,-0.29069 4.53405,1.04342 5.21795,3.56078 l 0.36385,1.33928 -5.01585,0 -5.01586,0 0.23113,-1.16071 z"
       id="path3138"
       inkscape:connector-curvature="0"
       transform="translate(0,308.2677)" />
    <path
       style="fill:#00ffff;fill-opacity:1"
       d="m 567.67857,208.99261 c -2.41729,-1.11646 -3.56365,-3.57918 -3.32316,-7.13911 0.26398,-3.90768 1.85881,-5.93239 4.89534,-6.21486 2.02912,-0.18875 3.73054,0.84099 4.79393,2.9014 0.99385,1.92571 0.96639,5.95905 -0.0542,7.95957 -1.25932,2.46849 -4.01148,3.5555 -6.31191,2.493 z"
       id="path3140"
       inkscape:connector-curvature="0"
       transform="translate(0,308.2677)" />
    <path
       style="fill:#00ffff;fill-opacity:1"
       d="m 522.66404,244.5674 c 1.10589,-4.49794 7.10478,-5.4713 9.13949,-1.48294 1.26659,2.48272 1.29765,2.46508 -4.34225,2.46508 l -5.03871,0 0.24147,-0.98214 z"
       id="path3142"
       inkscape:connector-curvature="0"
       transform="translate(0,308.2677)" />
    <path
       style="fill:#00ffff;fill-opacity:1"
       d=""
       id="path3144"
       inkscape:connector-curvature="0"
       transform="translate(0,308.2677)" />
    <path
       style="fill:#00ffff;fill-opacity:1"
       d="m 521.78571,273.21188 c 0,-0.30357 0.39449,-0.94643 0.87663,-1.42857 1.66401,-1.66401 4.49871,-0.94023 5.30895,1.35552 0.19946,0.56518 -0.086,0.625 -2.9825,0.625 -2.65095,0 -3.20308,-0.0951 -3.20308,-0.55195 z"
       id="path3146"
       inkscape:connector-curvature="0"
       transform="translate(0,308.2677)" />
    <path
       style="fill:#00ffff;fill-opacity:1"
       d="m 550.26786,279.44951 c -0.74095,-0.43157 -0.82525,-1.8606 -0.14315,-2.4267 0.26502,-0.21994 1.34984,-0.56376 2.41072,-0.76404 1.06087,-0.20028 2.21011,-0.45262 2.55386,-0.56075 1.32771,-0.41766 0.29257,3.00232 -1.14094,3.76951 -0.87159,0.46646 -2.86545,0.4567 -3.68049,-0.018 z"
       id="path3148"
       inkscape:connector-curvature="0"
       transform="translate(0,308.2677)" />
    <path
       style="fill:#00ffff;fill-opacity:1"
       d="m 575,273.41232 c 0,-0.63001 1.94582,-2.46638 2.67857,-2.52791 1.47642,-0.12397 2.02081,0.0463 2.87338,0.8989 1.64327,1.64327 1.24521,1.98052 -2.33766,1.98052 -1.87042,0 -3.21429,-0.14696 -3.21429,-0.35151 z"
       id="path3152"
       inkscape:connector-curvature="0"
       transform="translate(0,308.2677)" />
    <path
       style="fill:#00ffff;fill-opacity:1"
       d="m 116.4347,122.54656 c -0.53114,-0.13439 -0.47751,-0.14686 0.35714,-0.083 2.37305,0.18145 4.8202,-0.6301 5.64127,-1.87082 0.7978,-1.20556 0.79141,-2.76501 -0.0153,-3.72368 -0.57972,-0.68895 -2.0437,-1.37525 -5.98315,-2.80483 -6.65838,-2.41626 -7.79427,-3.21613 -8.11616,-5.71527 l -0.11447,-0.88866 0.32323,0.89423 c 0.60895,1.68474 1.82259,2.89964 3.82754,3.83153 0.62339,0.28974 2.85026,0.97423 4.94861,1.52108 2.09836,0.54685 4.24243,1.19639 4.76462,1.44343 3.54192,1.67559 2.91931,5.9351 -1.04304,7.13586 -1.10556,0.33503 -3.71088,0.48269 -4.59033,0.26017 z"
       id="path3154"
       inkscape:connector-curvature="0"
       transform="translate(0,308.2677)" />
    <path
       style="fill:#00ffff;fill-opacity:1"
       d="m 136.30237,121.61204 c -0.88755,-0.9073 -1.62671,-2.44516 -1.77433,-3.69157 l -0.10738,-0.90664 7.01551,0 7.0155,0 -0.11959,-1.55582 c -0.0658,-0.8557 -0.15636,-1.88025 -0.2013,-2.27678 l -0.0817,-0.72097 0.25052,0.71428 c 0.15056,0.42927 0.256,1.48026 0.26425,2.63393 l 0.0137,1.91964 -4.15178,0.001 c -8.9394,0.003 -10.66473,0.86682 -7.7559,3.88246 0.40262,0.41741 0.65169,0.75893 0.55347,0.75893 -0.0982,0 -0.51265,-0.34152 -0.92097,-0.75893 l 0,0 z"
       id="path3156"
       inkscape:connector-curvature="0"
       transform="translate(0,308.2677)" />
    <path
       style="fill:#00ffff;fill-opacity:1"
       d="m 134.64898,113.83195 c 0,-1.79557 1.79798,-4.06065 3.64526,-4.59226 1.3436,-0.38666 2.70401,-0.24565 3.89765,0.40401 1.38349,0.75299 2.18272,1.96787 2.52842,3.84334 l 0.12343,0.66965 -5.09738,0 c -4.80874,0 -5.09738,-0.0184 -5.09738,-0.32474 z m 7.76354,-0.27386 c 0.44483,-0.13408 0.80977,-0.3918 0.9772,-0.69009 0.25293,-0.45062 0.23804,-0.5125 -0.27818,-1.15621 -0.29997,-0.37406 -0.97723,-0.94127 -1.50501,-1.26046 -1.69802,-1.02694 -3.65841,-0.70921 -5.03337,0.8158 -1.15215,1.27788 -1.07298,2.04303 0.24357,2.35408 0.9296,0.21962 4.80271,0.17594 5.59579,-0.0631 z"
       id="path3158"
       inkscape:connector-curvature="0"
       transform="translate(0,308.2677)" />
    <path
       style="fill:#00ffff;fill-opacity:1"
       d=""
       id="path3160"
       inkscape:connector-curvature="0"
       transform="translate(0,308.2677)" />
    <path
       style="fill:#00ffff;fill-opacity:1"
       d="m 50.898983,98.620971 0,-69.642857 114.553567,0 114.55358,0 0,69.642857 0,69.642859 -114.55358,0 -114.553567,0 0,-69.642859 z m 92.174477,27.046799 c 1.7441,-0.44974 3.05642,-1.23839 4.16855,-2.50513 0.54216,-0.61753 1.10889,-1.4175 1.25939,-1.7777 0.24852,-0.5948 0.2468,-0.69589 -0.0187,-1.10115 -0.16081,-0.24542 -0.65117,-0.60494 -1.0897,-0.79892 -1.29291,-0.57191 -2.18895,-0.25041 -4.28388,1.53709 -1.33475,1.13887 -2.57772,1.71012 -3.70383,1.70223 -0.83621,-0.006 -1.9348,-0.57543 -2.75374,-1.42771 -2.5374,-2.64068 -0.82039,-3.38979 7.76956,-3.38979 l 4.33505,0 0,-1.94548 c 0,-1.47161 -0.0913,-2.24107 -0.37484,-3.15906 -0.78311,-2.53542 -2.44396,-4.68567 -4.32665,-5.60158 -4.60448,-2.24006 -10.02226,-0.91453 -11.90659,2.9131 -1.56537,3.1797 -1.66242,9.05246 -0.20109,12.16802 0.92329,1.96845 2.50872,3.0676 5.14543,3.56722 1.68069,0.31847 4.35803,0.23739 5.98107,-0.18114 z m -21.28162,0.0853 c 1.80474,-0.29013 2.9251,-0.89663 4.35827,-2.35935 1.69003,-1.72486 2.31735,-2.98043 2.40119,-4.80587 0.0537,-1.16966 -0.003,-1.51717 -0.38579,-2.35271 -1.17411,-2.56459 -3.91358,-4.3925 -9.10389,-6.07457 -2.95787,-0.95858 -4.60981,-1.74197 -5.60215,-2.65667 -0.66853,-0.61624 -0.77477,-0.8132 -0.77477,-1.43632 0,-0.61803 0.11095,-0.82846 0.76943,-1.45941 1.04079,-0.99724 2.28861,-1.56819 3.63542,-1.6634 1.51703,-0.10724 2.7254,0.46274 4.40654,2.07852 1.73223,1.66487 2.84741,2.47827 3.71979,2.71318 2.10922,0.56796 2.75454,-0.99682 1.47,-3.56448 -0.90742,-1.81382 -3.0034,-3.93585 -4.39504,-4.449655 -1.33506,-0.492918 -4.61498,-0.684577 -6.89809,-0.403082 -3.95396,0.487498 -6.11559,1.927697 -6.9941,4.659857 -0.34637,1.07723 -0.39075,1.51969 -0.31797,3.17011 0.16872,3.82584 0.80289,4.37264 8.18969,7.06147 4.14876,1.51017 5.21659,2.00691 5.92996,2.75857 0.93755,0.98787 0.86517,2.65771 -0.1646,3.79755 -1.1583,1.28209 -3.59758,1.84139 -5.91811,1.35694 -2.37688,-0.4962 -3.64392,-1.46553 -4.41965,-3.38116 -0.49713,-1.22764 -1.39586,-1.93714 -2.45381,-1.93714 -1.41948,0 -1.91661,0.59559 -1.91661,2.29622 0,0.77486 0.13834,1.28494 0.61521,2.26838 1.16904,2.41093 2.82834,3.79849 5.14393,4.30151 1.36148,0.29576 7.04156,0.34894 8.70515,0.0815 l 0,0 z m 33.06257,-0.004 c 0.77491,-0.41472 0.91193,-1.22482 1.0547,-6.23563 0.21204,-7.44134 0.56329,-8.31832 3.47202,-8.66875 1.30485,-0.1572 1.84145,-0.34713 2.36414,-0.83675 l 0.39986,-0.37456 0.6239,1.35035 c 0.34315,0.74269 1.43681,3.3474 2.43037,5.78824 2.11529,5.19659 2.97165,6.91945 4.00881,8.06503 l 0.75793,0.83715 1.20113,0 c 1.86853,0 1.76266,0.19012 5.5835,-10.02641 1.79438,-4.79797 3.26089,-8.78385 3.25893,-8.85751 -0.006,-0.24075 -3.19833,-0.14689 -3.81861,0.11228 -0.89669,0.37466 -1.27216,0.99651 -2.09419,3.4683 -0.725,2.18005 -3.06839,8.17977 -3.27594,8.38732 -0.15233,0.15233 -0.14343,0.17249 -1.42931,-3.23757 -2.92507,-7.75702 -3.30663,-8.29928 -6.2618,-8.89894 -1.47345,-0.29899 -7.42215,-0.29077 -9.7132,0.0134 l -1.85733,0.24661 0.10602,8.32482 c 0.13262,10.41382 0.19398,10.73553 2.04737,10.73553 0.42965,0 0.94342,-0.0868 1.1417,-0.19294 l 0,0 z m 30.40009,-0.0809 c 0.54372,-0.54372 0.67605,-1.68472 0.83805,-7.22612 0.1557,-5.32584 -0.0282,-16.40687 -0.29048,-17.5037 -0.0592,-0.24757 -0.25792,-0.64935 -0.44159,-0.89285 -0.27957,-0.370635 -0.48359,-0.442735 -1.25279,-0.442735 -0.74115,0 -0.98262,0.07878 -1.2487,0.407365 -0.73522,0.90797 -0.79929,1.93458 -0.79929,12.80693 0,10.93487 0.0705,12.0348 0.81955,12.78383 0.43288,0.43288 1.96622,0.47632 2.37525,0.0673 l 0,-1e-5 z m 17.10935,-0.30396 c 1.58127,-0.51769 2.55914,-1.22072 3.34207,-2.40273 1.04653,-1.57997 0.56516,-3.13125 -1.11565,-3.59534 -1.09118,-0.30129 -1.75606,0.01 -3.18156,1.48934 -1.82285,1.89175 -3.22381,2.28678 -5.04502,1.42256 -0.88589,-0.42038 -2.27747,-1.69477 -2.69284,-2.46607 -0.29227,-0.54272 -0.30442,-0.6691 -0.0892,-0.9284 0.56323,-0.67865 1.83709,-0.90918 6.36372,-1.15162 6.75147,-0.36161 7.01827,-0.53074 6.42057,-4.07017 -0.51562,-3.05332 -0.72307,-3.57099 -1.8883,-4.71217 -2.49865,-2.44705 -6.81194,-3.54382 -9.56078,-2.43106 -3.11301,1.26017 -4.8619,3.31135 -5.53587,6.49272 -0.15236,0.71919 -0.26279,2.21389 -0.2646,3.58133 -0.006,4.74072 0.98853,7.24401 3.33492,8.39199 1.54197,0.75442 2.83781,0.95054 5.85841,0.88664 2.28242,-0.0483 2.88201,-0.12327 4.05415,-0.50701 l 0,-1e-5 z m 14.9637,0.34787 c 1.16329,-0.58557 0.34289,-3.29867 -1.09281,-3.614 -1.0642,-0.23374 -1.46808,-2.32787 -1.48475,-7.69849 -0.0131,-4.20502 0.0331,-4.38037 1.21146,-4.60143 0.85629,-0.16064 1.33798,-0.57819 1.46828,-1.27273 0.19131,-1.01977 -0.38367,-1.65553 -1.76573,-1.95237 -0.77605,-0.16668 -1.05552,-1.04361 -1.18178,-3.7083 -0.1465,-3.091873 -0.45311,-3.368646 -2.34418,-2.11606 -1.06646,0.7064 -1.57097,1.65587 -1.87377,3.52641 -0.25248,1.55967 -0.61066,2.38124 -1.03816,2.38124 -0.3803,0 -0.83446,0.62108 -0.94293,1.28949 -0.11844,0.72988 0.29776,1.66655 0.8132,1.83015 0.7237,0.22969 1.01163,2.20401 1.17269,8.04107 0.10844,3.92992 0.36739,6.98594 0.62762,7.407 0.37718,0.61029 5.42672,0.99348 6.43086,0.48802 l 0,0 z M 142.30708,81.288848 c 1.5328,-0.353373 2.7434,-1.091578 4.21778,-2.571927 3.00306,-3.015232 2.89475,-4.620968 -0.29222,-4.331984 -1.36777,0.124025 -2.44664,0.678058 -3.06369,1.573308 -0.95354,1.383441 -2.64018,1.587767 -4.78053,0.579139 -1.35356,-0.637854 -1.87345,-1.126809 -3.05343,-2.87177 l -0.87546,-1.294643 7.3389,0 c 6.90476,0 7.33357,-0.01848 7.24868,-0.3125 -0.0496,-0.171875 -0.21968,-1.150344 -0.3779,-2.174378 -0.45757,-2.961548 -1.49143,-5.49829 -2.71109,-6.652102 -0.71307,-0.674568 -2.12165,-1.340502 -3.56067,-1.683379 -1.75109,-0.417234 -4.99609,-0.405562 -6.49847,0.02338 -2.11371,0.603479 -3.81259,2.799536 -4.83644,6.251831 -0.47335,1.596089 -0.65479,4.837777 -0.34557,6.173953 0.78693,3.400354 3.63827,6.272218 7.1463,7.197725 1.15225,0.303995 3.33154,0.349775 4.44381,0.09335 l 0,0 z m 30.82405,-0.288152 c 2.27922,-0.56785 4.75642,-2.433207 5.61727,-4.229873 1.56148,-3.258946 -0.92488,-5.937491 -7.81773,-8.422025 -3.45291,-1.244603 -3.80221,-1.623621 -2.57633,-2.795473 0.8604,-0.82248 1.29845,-1.039497 2.09821,-1.039497 0.83317,0 1.20447,0.204449 2.44278,1.345081 1.41627,1.304552 2.95611,1.792869 4.18283,1.326471 0.66968,-0.254612 0.95129,-0.6792 0.958,-1.444387 0.023,-2.627204 -3.09173,-4.495684 -7.49432,-4.495684 -3.06035,0 -5.22312,0.75643 -6.58436,2.30288 -2.3515,2.671441 -0.71694,6.363268 3.72722,8.418327 3.73489,1.727082 4.63929,2.235652 5.35337,3.010334 0.39493,0.42845 0.71806,0.935677 0.71806,1.127171 0,0.900409 -1.98806,1.452947 -3.92867,1.09189 -1.36557,-0.25407 -2.08832,-0.684272 -2.5919,-1.542774 -0.86875,-1.481051 -2.88626,-1.774173 -3.998,-0.580862 -0.47991,0.51512 -0.49963,1.916977 -0.0411,2.923696 1.21235,2.66195 5.77349,4.041456 9.93471,3.004725 z m 19.60385,-0.05924 c 3.75447,-1.159636 5.87158,-4.329636 6.14617,-9.202791 0.23797,-4.223456 -1.55184,-8.297397 -4.22863,-9.625102 -2.60694,-1.293063 -6.55331,-1.229134 -9.57854,0.155169 -2.64802,1.211697 -4.09045,4.038015 -4.30006,8.425608 -0.29408,6.155541 2.10752,9.682091 7.22567,10.610316 1.19871,0.217396 3.40302,0.04833 4.73539,-0.3632 z m -81.39616,-0.609797 c 0.86773,-0.36256 0.98171,-0.954643 1.11138,-5.773193 l 0.11173,-4.151785 3.52014,0 c 3.86945,0 5.79502,-0.242049 7.61357,-0.957043 1.9615,-0.771195 3.22934,-1.84132 4.02483,-3.397159 1.59769,-3.124811 0.94455,-6.77722 -1.69219,-9.462813 -2.19704,-2.23775 -3.05968,-2.418178 -11.60251,-2.426755 l -6.20536,-0.0062 0.005,10.223214 c 0.006,10.730871 0.13761,14.09738 0.59513,15.192373 0.40594,0.971539 1.33756,1.252527 2.5178,0.759391 l 1e-5,0 z m 43.48873,0.02279 c 0.75588,-0.381882 0.91365,-1.275009 1.07902,-6.108479 0.23783,-6.951414 0.86072,-8.43196 3.71731,-8.835737 1.27523,-0.180252 1.94969,-0.539675 2.48862,-1.326193 0.43597,-0.63625 0.51779,-1.65612 0.17041,-2.12407 -0.36198,-0.487619 -1.75174,-0.658391 -6.33928,-0.77896 l -4.33036,-0.113811 0.009,5.964386 c 0.0114,7.290321 0.21177,11.882066 0.54909,12.585582 0.42553,0.88748 1.67305,1.2338 2.65583,0.737282 l 0,0 z m 50.19308,0.05117 c 0.6045,-0.167925 0.84427,-0.44807 1.14533,-1.338218 0.0664,-0.196429 0.18775,-2.727679 0.26958,-5.625 0.18975,-6.717938 0.36115,-7.355111 2.18336,-8.116477 0.91725,-0.383252 1.7102,-0.345621 2.64259,0.125405 1.65785,0.837518 1.88502,1.77394 2.04977,8.449193 0.0608,2.46179 0.17998,4.784188 0.26494,5.160886 0.24285,1.07677 0.72322,1.436357 1.90326,1.424707 1.71045,-0.01687 1.85441,-0.497571 1.9758,-6.597286 0.10747,-5.400248 -0.11411,-8.594225 -0.68892,-9.930405 -0.44416,-1.03248 -1.3066,-1.847418 -2.24641,-2.122666 -1.37491,-0.402684 -4.3056,-0.545886 -8.75488,-0.427789 l -4.50892,0.11968 0,8.270014 c 0,8.431704 0.0891,9.780886 0.68064,10.305006 0.53786,0.476577 1.95698,0.615986 3.08386,0.30295 l 0,0 z"
       id="path3162"
       inkscape:connector-curvature="0"
       transform="translate(0,308.2677)" />
    <path
       style="fill:#00ffff;fill-opacity:1"
       d="m 155.43543,118.88883 c 0.046,-6.09762 0.1234,-6.71639 0.99294,-7.93754 0.48466,-0.68064 1.577,-1.25889 2.37812,-1.25889 0.61859,0 2.3524,0.51391 2.21096,0.65534 -0.0437,0.0437 -0.83154,0.19107 -1.75075,0.32749 -1.55531,0.23083 -1.70951,0.29176 -2.22203,0.8781 -0.30291,0.34653 -0.64145,0.93342 -0.75231,1.3042 -0.3511,1.17425 -0.56854,3.78676 -0.58372,7.01344 -0.008,1.71875 -0.0826,3.48661 -0.16551,3.92857 -0.0922,0.49101 -0.13404,-1.41912 -0.1077,-4.91071 z"
       id="path3164"
       inkscape:connector-curvature="0"
       transform="translate(0,308.2677)" />
    <path
       style="fill:#00ffff;fill-opacity:1"
       d="m 167.74302,122.27265 c -0.38743,-0.7814 -1.28338,-2.84126 -1.991,-4.57746 -0.70761,-1.7362 -1.57027,-3.83858 -1.91702,-4.67195 -1.13002,-2.7159 -1.99521,-4.19954 -1.99521,-3.42139 0,0.0893 -0.11364,0.26523 -0.25254,0.39093 -0.1389,0.1257 -0.25213,0.17712 -0.25164,0.11427 0.001,-0.16994 0.88759,-2.49832 0.99219,-2.6067 0.0495,-0.0513 1.47336,3.54447 3.16407,7.99064 1.69071,4.44618 3.04737,8.11061 3.0148,8.14318 -0.0326,0.0326 -0.37621,-0.58011 -0.76365,-1.36152 l 0,0 z"
       id="path3166"
       inkscape:connector-curvature="0"
       transform="translate(0,308.2677)" />
    <path
       style="fill:#00ffff;fill-opacity:1"
       d="m 155.02126,107.92285 c 0,-1.02261 0.0362,-1.26308 0.19973,-1.32583 0.10985,-0.0422 0.69227,-0.0741 1.29426,-0.0711 l 1.09452,0.006 -0.46057,0.24334 c -0.51523,0.27221 -1.23088,1.05143 -1.70872,1.86051 -0.17432,0.29515 -0.33996,0.53664 -0.36809,0.53664 -0.0281,0 -0.0511,-0.56213 -0.0511,-1.24918 z"
       id="path3168"
       inkscape:connector-curvature="0"
       transform="translate(0,308.2677)" />
    <path
       style="fill:#00ffff;fill-opacity:1"
       d="m 170.38321,120.11702 c -0.19721,-0.63753 -1.12619,-3.30797 -2.06441,-5.93431 -0.93821,-2.62634 -1.68033,-4.80069 -1.64913,-4.83189 0.1163,-0.1163 1.10797,2.27352 2.49325,6.00839 0.78563,2.11817 1.46711,3.89583 1.51439,3.95036 0.1617,0.1865 2.90576,-6.69486 3.78429,-9.49 0.37383,-1.18937 0.63086,-1.78664 0.89269,-2.07437 0.20223,-0.22224 0.36936,-0.34055 0.37139,-0.26292 0.002,0.0776 -0.92579,2.69141 -2.06185,5.80838 -1.13605,3.11697 -2.22271,6.1502 -2.41479,6.74051 -0.19208,0.59031 -0.3848,1.11192 -0.42826,1.15914 -0.0435,0.0472 -0.24037,-0.43577 -0.43757,-1.07329 z"
       id="path3170"
       inkscape:connector-curvature="0"
       transform="translate(0,308.2677)" />
    <path
       style="fill:#00ffff;fill-opacity:1"
       d="m 192.64944,113.99678 c 0,-0.40049 0.36977,-1.66037 0.64654,-2.20289 0.44249,-0.86734 1.53997,-1.91698 2.42033,-2.31483 1.02085,-0.46132 2.64688,-0.57324 3.65453,-0.25154 1.88413,0.60153 3.1724,2.23222 3.45672,4.37553 l 0.0822,0.61974 -5.13016,0 c -4.84526,0 -5.13017,-0.0126 -5.13017,-0.22601 z m 7.38674,-0.26788 c 1.76044,-0.25564 2.33839,-0.61771 2.15464,-1.34984 -0.10758,-0.42863 -1.26723,-1.65266 -1.84497,-1.9474 -2.00404,-1.02239 -5.32444,-0.24382 -6.4015,1.50103 -0.56098,0.90878 -0.23238,1.5847 0.83858,1.72495 0.31971,0.0419 0.66653,0.0943 0.7707,0.11659 0.4254,0.0909 3.77801,0.057 4.48255,-0.0453 l 0,0 z"
       id="path3172"
       inkscape:connector-curvature="0"
       transform="translate(0,308.2677)" />
    <path
       style="fill:#00ffff;fill-opacity:1"
       d="m 196.58706,122.99878 c -0.36915,-0.10381 -0.91612,-0.3323 -1.21549,-0.50773 -0.69097,-0.40494 -1.72886,-1.49791 -2.08462,-2.19526 -0.32764,-0.64222 -0.76378,-2.28299 -0.76378,-2.87334 l 0,-0.42174 6.40816,0.008 c 3.81223,0.005 6.2967,0.0529 6.13303,0.11887 -0.34413,0.13869 -2.68893,0.34069 -5.09131,0.43862 -1.007,0.041 -2.37071,0.13174 -3.03046,0.20153 -3.27323,0.34629 -4.08043,0.8349 -3.42387,2.07253 0.41061,0.774 1.7409,2.05521 2.60312,2.50708 0.69464,0.36404 0.85732,0.39708 1.95717,0.39748 1.67226,6e-4 2.06487,-0.22747 3.89066,-2.26006 0.29948,-0.33341 0.57335,-0.57737 0.60858,-0.54213 0.13022,0.13022 -0.50541,1.16326 -1.10741,1.79979 -0.85406,0.90305 -1.83773,1.33408 -3.1887,1.39724 -0.66312,0.031 -1.26037,-0.0186 -1.69508,-0.14089 z"
       id="path3174"
       inkscape:connector-curvature="0"
       transform="translate(0,308.2677)" />
    <path
       style="fill:#00ffff;fill-opacity:1"
       d="m 214.91389,122.49858 c -0.22046,-0.0959 -0.50457,-0.33259 -0.63134,-0.52598 -0.21387,-0.32626 -0.23311,-0.79611 -0.26663,-6.51296 l -0.0361,-6.16134 1.42508,0.0102 c 1.31242,0.009 1.39514,0.024 1.04628,0.18371 -0.20834,0.0954 -0.52242,0.17602 -0.69795,0.17915 -0.51463,0.009 -0.85935,0.34651 -1.06633,1.04348 -0.35754,1.204 -0.21589,6.59281 0.24325,9.25314 0.26971,1.56276 0.5938,2.20971 1.10696,2.20971 0.1327,0 0.36411,0.0657 0.51426,0.1461 0.2668,0.14279 0.26732,0.14831 0.0233,0.24367 -0.39707,0.15513 -1.22456,0.12078 -1.66072,-0.0689 l 0,0 z"
       id="path3176"
       inkscape:connector-curvature="0"
       transform="translate(0,308.2677)" />
    <path
       style="fill:#00ffff;fill-opacity:1"
       d="m 212.91563,125.71309 c -0.96074,-0.1445 -1.65846,-0.36024 -1.8288,-0.56549 -0.3004,-0.36196 -0.50948,-2.58606 -0.63529,-6.75793 -0.17147,-5.68629 -0.37231,-7.7286 -0.82882,-8.42846 -0.10192,-0.15626 -0.26228,-0.2841 -0.35635,-0.2841 -0.0941,0 -0.24176,-0.0852 -0.32822,-0.18941 -0.13739,-0.16554 -0.0359,-0.1894 0.80529,-0.1894 l 0.96248,0 0.002,5.83994 c 0.001,3.21197 0.0588,6.37764 0.12802,7.03482 0.27046,2.56832 1.24768,3.37585 4.2892,3.54441 l 1.4521,0.0805 -1.51523,0.005 c -0.83338,0.003 -1.79933,-0.0377 -2.14657,-0.0899 l 0,0 z"
       id="path3178"
       inkscape:connector-curvature="0"
       transform="translate(0,308.2677)" />
    <path
       style="fill:#00ffff;fill-opacity:1"
       d="m 210.75732,104.62634 c 0,-1.14589 0.0191,-1.61466 0.0425,-1.04172 0.0234,0.57295 0.0234,1.5105 0,2.08344 -0.0234,0.57295 -0.0425,0.10417 -0.0425,-1.04172 z"
       id="path3180"
       inkscape:connector-curvature="0"
       transform="translate(0,308.2677)" />
    <path
       style="fill:#00ffff;fill-opacity:1"
       d="m 209.9533,106.22459 c 0.15594,-0.2643 0.3156,-0.92898 0.42714,-1.77827 0.098,-0.74591 0.21128,-1.38936 0.2518,-1.42989 0.0405,-0.0405 0.0737,0.7597 0.0737,1.77827 l 0,1.85195 -0.50082,0 -0.50082,0 0.24902,-0.42206 z"
       id="path3182"
       inkscape:connector-curvature="0"
       transform="translate(0,308.2677)" />
    <path
       style="fill:#00ffff;fill-opacity:1"
       d="m 213.99275,103.52149 c 0.004,-3.45866 0.17953,-3.935246 0.31184,-0.8479 0.0999,2.3308 0.24056,3.10681 0.65178,3.59551 l 0.31768,0.37755 -0.64257,0 -0.64257,0 0.004,-3.12516 z"
       id="path3184"
       inkscape:connector-curvature="0"
       transform="translate(0,308.2677)" />
    <path
       style="fill:#00ffff;fill-opacity:1"
       d="m 188.59992,78.072837 c -1.83608,-0.398856 -3.38492,-1.950865 -3.93775,-3.9458 -0.28165,-1.016387 -0.39971,-2.237972 -0.34636,-3.584085 0.076,-1.918753 0.42241,-3.183402 1.17492,-4.289765 1.22108,-1.79527 3.345,-2.609318 5.48923,-2.103888 1.68932,0.398201 3.25215,1.958155 3.79808,3.791091 0.50966,1.711132 0.52771,4.277967 0.0427,6.071429 -0.29518,1.091524 -0.75769,1.926394 -1.46519,2.644806 -1.26649,1.286023 -2.99095,1.799561 -4.75564,1.416212 z m 2.46932,-0.805642 c 1.57698,-0.371719 2.54058,-1.371111 3.00967,-3.121448 0.2567,-0.957827 0.23609,-3.166593 -0.0412,-4.412391 -0.4516,-2.02917 -1.14818,-3.476857 -2.1554,-4.47954 -0.7666,-0.763151 -1.21164,-0.97414 -2.05478,-0.97414 -1.92394,0 -3.59508,1.75915 -4.38352,4.614372 -0.29276,1.060207 -0.34089,3.345575 -0.094,4.463505 0.21067,0.953917 0.63024,2.011027 1.00172,2.52384 0.47994,0.662546 1.45452,1.232415 2.44902,1.432032 0.59167,0.118759 1.66098,0.09697 2.26847,-0.04623 z"
       id="path3188"
       inkscape:connector-curvature="0"
       transform="translate(0,308.2677)" />
    <path
       style="fill:#00ffff;fill-opacity:1"
       d="m 201.94189,79.922499 c -0.51121,-0.5649 -0.57198,-1.570438 -0.64908,-10.739847 l -0.0635,-7.55238 1.68752,-0.05897 c 0.92813,-0.03243 2.6518,-0.0564 3.83037,-0.05325 1.85788,0.005 2.09536,0.02068 1.78571,0.118177 -1.09699,0.345422 -2.42089,1.260744 -3.05734,2.113797 l -0.33552,0.449697 -0.0248,-1.254663 -0.0248,-1.254662 -1.47035,0 -1.47034,0 -0.0227,9.205809 c -0.022,8.908331 -0.028,9.200008 -0.18519,9.0263 l 0,0 z"
       id="path3190"
       inkscape:connector-curvature="0"
       transform="translate(0,308.2677)" />
    <path
       style="fill:#00ffff;fill-opacity:1"
       d="m 205.45255,74.51151 c 0,-3.670641 0.0343,-5.820593 0.0994,-6.241517 0.1244,-0.80313 0.47057,-1.777843 0.80391,-2.263574 0.73654,-1.073223 2.46216,-1.90167 3.96272,-1.902445 1.64322,-8.48e-4 3.11322,0.95598 3.52704,2.295771 0.2947,0.954142 0.35409,2.33052 0.35349,8.192431 -5.8e-4,5.496723 -0.002,5.534142 -0.17387,5.3125 -0.4244,-0.546652 -0.6214,-2.700232 -0.62482,-6.830357 -0.005,-5.736825 -0.42559,-7.185117 -2.29771,-7.907415 -0.71874,-0.277301 -1.83842,-0.282022 -2.52997,-0.01067 -1.94035,0.761369 -2.31543,2.238671 -2.31642,9.123438 -5.5e-4,3.814177 -0.15953,5.248177 -0.62893,5.67298 -0.17348,0.156996 -0.17489,0.113254 -0.17489,-5.441146 z"
       id="path3192"
       inkscape:connector-curvature="0"
       transform="translate(0,308.2677)" />
    <path
       style="fill:#00ffff;fill-opacity:1"
       d="m 111.88113,62.31539 0,-4.553571 4.21875,0.0028 c 2.32031,0.0015 4.52009,0.04127 4.88839,0.08834 1.67648,0.214252 3.05554,1.470599 3.43224,3.126827 0.0766,0.336586 0.13479,0.744667 0.1294,0.906848 -0.009,0.281629 -0.0131,0.278136 -0.0835,-0.07777 -0.26834,-1.35711 -1.89485,-2.565872 -4.28648,-3.185563 -1.31118,-0.339738 -2.2396,-0.414486 -5.15152,-0.414757 l -2.7009,-2.52e-4 0,4.070395 0,4.070395 3.10268,-0.03897 c 3.31666,-0.04166 3.94953,-0.107788 5.32325,-0.556214 1.8189,-0.593749 2.96768,-1.407905 3.54585,-2.512995 l 0.18056,-0.345108 -0.049,0.446429 c -0.11809,1.076401 -1.06332,2.340333 -2.12589,2.842661 -1.21917,0.576367 -2.27282,0.682483 -6.7855,0.683392 l -3.63839,7.32e-4 0,-4.553571 z"
       id="path3194"
       inkscape:connector-curvature="0"
       transform="translate(0,308.2677)" />
    <path
       style="fill:#00ffff;fill-opacity:1"
       d="m 134.59243,68.792012 c 0.26419,-2.247911 1.81136,-4.111203 3.85587,-4.64373 0.66705,-0.173745 1.99544,-0.1755 2.65575,-0.0035 2.05867,0.536213 3.44159,2.266399 3.69393,4.62151 l 0.055,0.513393 -0.97254,-0.006 -0.97254,-0.006 0.44337,-0.118992 c 0.61023,-0.163772 0.88848,-0.493272 0.81335,-0.963148 -0.15371,-0.961232 -1.14481,-2.127211 -2.2835,-2.686411 -2.22117,-1.090794 -5.00068,-0.638528 -5.94144,0.966757 -0.25379,0.433069 -0.43497,1.28087 -0.35324,1.652972 0.0641,0.291666 0.431,0.691997 0.75896,0.828013 0.12277,0.05092 0.4442,0.143272 0.71429,0.205235 0.46327,0.106283 0.40572,0.113084 -1.01676,0.120143 l -1.50783,0.0075 0.0573,-0.487664 z"
       id="path3196"
       inkscape:connector-curvature="0"
       transform="translate(0,308.2677)" />
    <path
       style="fill:#00ffff;fill-opacity:1"
       d="m 139.15791,78.151951 c -1.6951,-0.262706 -3.21171,-1.3718 -3.96252,-2.897778 -0.36398,-0.739768 -0.76541,-2.083556 -0.70912,-2.373794 0.0174,-0.0898 0.32104,0.292806 0.76864,0.968598 0.83639,1.262784 1.54385,2.01621 2.35206,2.504903 1.80848,1.093517 4.11381,1.269824 5.12871,0.392234 0.17742,-0.153416 0.45143,-0.49992 0.60893,-0.77001 0.26026,-0.446348 0.97871,-1.071428 1.23147,-1.071428 0.19558,0 -0.63183,1.322004 -1.1771,1.88071 -0.88527,0.907091 -1.83277,1.317886 -3.16964,1.374218 -0.44196,0.01862 -0.92411,0.01518 -1.07143,-0.0077 z"
       id="path3198"
       inkscape:connector-curvature="0"
       transform="translate(0,308.2677)" />
    <path
       style="fill:#00ffff;fill-opacity:1"
       d="m 151.95042,77.806462 c -0.0355,-0.294643 -0.0908,-4.121652 -0.12279,-8.504465 l -0.0582,-7.96875 3.20315,0.0021 3.20316,0.0021 -0.50067,0.205958 c -0.89336,0.367493 -1.46927,0.908486 -2.22838,2.093261 l -0.44057,0.687614 -1e-5,-1.316965 -10e-6,-1.316964 -1.47276,0 -1.47275,0 -0.0228,8.325893 c -0.0125,4.579241 -0.0519,8.084821 -0.0874,7.790179 z"
       id="path3200"
       inkscape:connector-curvature="0"
       transform="translate(0,308.2677)" />
    <path
       style="fill:#00ffff;fill-opacity:1"
       d="m 155.27398,75.200379 c 0,-2.45641 0.0412,-4.972938 0.0914,-5.592284 0.10221,-1.25869 0.40276,-2.576236 0.73908,-3.239916 0.27517,-0.543029 1.00247,-1.236893 1.55068,-1.479391 0.76087,-0.336572 1.82179,-0.308242 2.68702,0.07175 0.32847,0.144254 0.33015,0.147543 0.11035,0.214988 -0.12276,0.03767 -0.42571,0.0725 -0.6732,0.07739 -1.60869,0.03182 -2.75512,0.898404 -3.30704,2.499789 -0.49525,1.436965 -0.63537,2.818742 -0.75246,7.419825 -0.0604,2.375379 -0.12289,3.499967 -0.2149,3.870502 -0.0713,0.287259 -0.15249,0.545071 -0.18034,0.572917 -0.0278,0.02785 -0.0506,-1.959162 -0.0506,-4.415573 z"
       id="path3202"
       inkscape:connector-curvature="0"
       transform="translate(0,308.2677)" />
    <path
       style="fill:#00ffff;fill-opacity:1"
       d="m 169.56647,78.078452 c -0.934,-0.177923 -1.85887,-0.657265 -2.37947,-1.23323 -0.42952,-0.475198 -0.86681,-1.297357 -0.97695,-1.836801 -0.0552,-0.270444 -0.0456,-0.289805 0.10422,-0.209092 0.26825,0.144548 0.56185,0.499302 0.91201,1.101943 0.51829,0.892029 1.37053,1.323526 2.97248,1.504997 0.79278,0.08981 2.05082,0.0075 2.65543,-0.173652 0.64951,-0.194645 1.08319,-0.638748 1.07855,-1.104464 -0.004,-0.366923 -0.32795,-0.909345 -0.82062,-1.372589 -0.87135,-0.819318 -1.98266,-1.436364 -4.29405,-2.384238 -1.25791,-0.515857 -2.29204,-1.035215 -2.0653,-1.037234 0.0522,-4.65e-4 0.45396,0.121214 0.89286,0.270396 0.4389,0.149183 1.48103,0.453133 2.31585,0.675445 3.55033,0.945449 4.11183,1.15325 4.60976,1.705982 0.4115,0.456777 0.55992,0.903726 0.49832,1.500575 -0.11886,1.151644 -0.95843,2.044621 -2.32109,2.468728 -0.74229,0.231027 -2.29955,0.291337 -3.182,0.123234 z"
       id="path3204"
       inkscape:connector-curvature="0"
       transform="translate(0,308.2677)" />
    <path
       style="fill:#00ffff;fill-opacity:1"
       d="m 177.05631,78.507457 c 0.51997,-0.568932 1.01251,-1.479878 1.20989,-2.237662 0.28541,-1.095736 0.13886,-2.708285 -0.32972,-3.628236 -0.27455,-0.539002 -0.12396,-0.484892 0.3168,0.113835 0.54756,0.743812 0.79152,1.414192 0.7984,2.193925 0.0105,1.190467 -0.47764,2.193274 -1.66238,3.415178 -0.73895,0.762128 -1.00215,0.875123 -0.33299,0.14296 z"
       id="path3206"
       inkscape:connector-curvature="0"
       transform="translate(0,308.2677)" />
    <path
       style="fill:#00ffff;fill-opacity:1"
       d="m 174.18954,70.026274 c -0.47367,-0.164153 -2.01003,-0.619355 -3.41412,-1.01156 -2.68801,-0.750843 -3.22449,-0.961109 -3.68888,-1.445816 -0.58285,-0.608351 -0.69673,-1.256264 -0.35123,-1.998228 0.49481,-1.062601 1.65186,-1.555028 3.65971,-1.557532 1.98031,-0.0025 3.13263,0.539504 3.75279,1.765058 0.25023,0.494494 0.42821,1.090765 0.32558,1.090765 -0.18912,0 -1.21514,-0.785799 -1.58422,-1.213298 -1.06277,-1.231006 -2.36353,-1.622179 -3.54135,-1.06498 -0.88655,0.419405 -1.84169,1.47312 -1.84169,2.031761 0,0.250025 0.45242,0.693401 0.97856,0.958994 0.27956,0.141123 1.27092,0.516546 2.20302,0.834273 0.93211,0.317727 2.04745,0.723694 2.47856,0.902149 0.87485,0.362147 2.01843,0.922892 2.01843,0.989724 0,0.06137 -0.0343,0.05167 -0.99516,-0.28131 l 0,0 z"
       id="path3208"
       inkscape:connector-curvature="0"
       transform="translate(0,308.2677)" />
    <path
       style="fill:#00ffff;fill-opacity:1"
       d="m 50.809697,107.44932 0,-60.848216 114.598213,0 114.59822,0 0,60.848216 0,60.84821 -114.59822,0 -114.598213,0 0,-60.84821 z m 91.650403,18.34512 c 1.0553,-0.2222 2.2413,-0.65236 2.96353,-1.07489 1.09242,-0.6391 3.05767,-2.91632 3.2079,-3.71713 0.11495,-0.61277 -0.3545,-1.13473 -1.3864,-1.54147 -1.18856,-0.46848 -2.31483,-0.0647 -3.84615,1.37886 -0.896,0.84466 -1.45329,1.23801 -2.24271,1.58295 -0.60294,0.26346 -0.73929,0.28826 -1.60089,0.2912 -0.91057,0.003 -0.96421,-0.008 -1.6168,-0.33022 -0.51205,-0.25295 -0.82821,-0.49475 -1.30972,-1.00165 -1.35944,-1.43114 -1.43203,-2.33743 -0.22982,-2.8691 1.12203,-0.49622 3.26768,-0.65865 8.72612,-0.66059 l 3.64581,-0.001 -0.0367,-1.98661 c -0.0407,-2.20408 -0.12004,-2.64319 -0.73842,-4.08794 -1.21623,-2.84156 -3.23866,-4.63252 -6.05656,-5.3634 -3.8368,-0.99515 -7.96793,0.47717 -9.60899,3.42462 -0.45678,0.82039 -0.92365,2.24847 -1.17926,3.6071 -0.16822,0.89415 -0.19927,1.36916 -0.20047,3.06694 -0.002,2.28002 0.11437,3.15092 0.62956,4.72693 0.40867,1.25018 0.83055,1.97747 1.58833,2.73813 0.50166,0.50357 0.80886,0.72055 1.48689,1.05021 0.8908,0.4331 2.11402,0.78951 3.2261,0.93996 1.04206,0.14099 3.53572,0.047 4.57864,-0.17261 l 0,0 z m -22.72183,0.095 c 3.19144,-0.15618 4.40486,-0.60219 6.12115,-2.2499 1.75671,-1.68651 2.59797,-3.25233 2.69463,-5.0155 0.0925,-1.68635 -0.41036,-2.8976 -1.79738,-4.32982 -1.67704,-1.73169 -3.66411,-2.77083 -8.04519,-4.20725 -2.99703,-0.98262 -4.281,-1.58182 -5.30036,-2.47353 -1.15998,-1.01472 -1.06995,-2.21476 0.24778,-3.30264 1.15281,-0.95174 2.50669,-1.49359 3.7133,-1.48615 1.47804,0.009 2.52747,0.57194 4.37125,2.34432 2.02046,1.94223 3.13882,2.6365 4.24482,2.63514 0.67336,-8e-4 0.97936,-0.15898 1.19766,-0.61901 0.6024,-1.26946 -0.64866,-3.90615 -2.86304,-6.03407 -1.15457,-1.10949 -1.85359,-1.465245 -3.44188,-1.751716 -1.21719,-0.219536 -4.75402,-0.217255 -6.09543,0.0039 -3.11917,0.514322 -5.01079,1.671907 -5.98759,3.664147 -0.56126,1.14471 -0.69813,1.85361 -0.69089,3.5784 0.0178,4.23641 0.63016,4.80898 7.92581,7.41027 3.10943,1.10868 3.83785,1.39566 4.80481,1.89294 1.02829,0.52882 1.70093,1.14088 1.87953,1.71024 0.48874,1.55806 0.0267,2.848 -1.34575,3.75707 -1.60663,1.06419 -4.53702,1.22114 -6.70037,0.35888 -1.65426,-0.65934 -2.49432,-1.53898 -3.10801,-3.2544 -0.2173,-0.60743 -1.00115,-1.38942 -1.59522,-1.59144 -1.13841,-0.38714 -2.23382,0.0767 -2.53207,1.0722 -0.14939,0.49861 -0.13556,1.49249 0.0296,2.12994 0.32316,1.24707 1.35554,2.89613 2.44392,3.90378 1.36989,1.26827 2.71053,1.72207 5.45389,1.84613 2.13986,0.0968 2.54663,0.0975 4.375,0.008 l 0,0 z m 34.97476,-0.10263 c 0.15799,-0.0497 0.38548,-0.20718 0.50553,-0.34985 0.424,-0.5039 0.50409,-1.17575 0.59031,-4.95189 0.0852,-3.73301 0.13292,-4.74617 0.27949,-5.9375 0.17966,-1.46031 0.48594,-2.34797 1.01048,-2.92858 0.46506,-0.51477 1.01653,-0.71818 2.21107,-0.81554 1.47198,-0.11997 2.36164,-0.48142 2.57659,-1.04681 0.046,-0.1209 0.12491,-0.19427 0.17543,-0.16305 0.24822,0.15342 1.28278,2.47347 3.00535,6.7397 2.32825,5.76628 3.09717,7.33346 4.21273,8.58627 0.53399,0.59969 0.97807,0.78873 1.85285,0.78873 1.3023,0 1.82634,-0.42769 2.51868,-2.05562 0.53639,-1.26124 6.35459,-16.74754 6.35459,-16.91401 0,-0.0895 -2.93371,-0.0491 -3.37968,0.0466 -0.66093,0.14174 -1.2084,0.53036 -1.52615,1.08336 -0.31428,0.54693 -0.39506,0.76134 -0.89699,2.38098 -0.20335,0.65619 -0.62174,1.86155 -0.92974,2.67857 -0.68663,1.8214 -2.48465,6.17328 -2.55012,6.17227 -0.0262,-4.4e-4 -0.38465,-0.91446 -0.79649,-2.03125 -3.16131,-8.57232 -3.68413,-9.51215 -5.61839,-10.09966 -2.16345,-0.65713 -6.81733,-0.77924 -10.8203,-0.2839 -0.81027,0.10027 -1.54353,0.18255 -1.62947,0.18285 -0.14735,5.4e-4 -0.15616,0.36264 -0.15472,6.36216 0.002,10.07552 0.14321,11.92181 0.94941,12.45005 0.43546,0.28532 1.34208,0.33205 2.05954,0.10615 z m 30.38238,-0.0693 c 0.87647,-0.59858 1.00842,-2.31409 1.00688,-13.08959 -0.002,-12.45276 -0.0851,-12.989812 -2.01578,-12.990737 -0.89421,-4.47e-4 -1.14182,0.126277 -1.43593,0.734797 -0.53167,1.10004 -0.61422,3.08529 -0.56716,13.63987 0.04,8.97828 0.0721,9.74617 0.45381,10.88614 0.22008,0.65719 0.47823,0.899 1.06083,0.99372 0.5355,0.0871 1.23374,0.006 1.49735,-0.1742 l 0,0 z m 31.94322,0.0645 c 0.80768,-0.20268 1.01349,-0.87206 0.63994,-2.08146 -0.23652,-0.76577 -0.94982,-1.56368 -1.39787,-1.56368 -0.42436,0 -0.55194,-0.08 -0.75165,-0.4715 -0.54514,-1.06856 -0.8322,-3.33561 -0.93521,-7.38564 -0.0605,-2.37831 0.0103,-3.23807 0.31935,-3.87639 0.20594,-0.42541 0.40883,-0.54331 1.09977,-0.63907 0.50586,-0.0701 0.91891,-0.32795 1.20868,-0.75453 0.17793,-0.26192 0.20558,-0.39581 0.17716,-0.85769 -0.0551,-0.89439 -0.51786,-1.32707 -1.6088,-1.5041 -0.47504,-0.0771 -0.83246,-0.41932 -1.05515,-1.01032 -0.15597,-0.41394 -0.20663,-0.81998 -0.26968,-2.16148 -0.11015,-2.34382 -0.14867,-2.72904 -0.30269,-3.02687 -0.17167,-0.33196 -0.40683,-0.40857 -0.83186,-0.27097 -1.44563,0.46799 -2.56027,1.65656 -2.8764,3.06718 -0.0541,0.24138 -0.13441,0.80386 -0.17847,1.24995 -0.13766,1.39356 -0.51039,2.195 -1.02087,2.195 -0.74141,0 -1.20948,1.42483 -0.77726,2.36607 0.19129,0.41657 0.39756,0.61288 0.76954,0.73239 0.69756,0.2241 0.92911,2.1021 1.11517,9.0444 0.11415,4.25939 0.31485,6.11088 0.70022,6.45963 0.24262,0.21957 1.44983,0.4969 2.56369,0.58895 1.11549,0.0922 2.84923,0.0414 3.41239,-0.0999 l 0,0 z m -16.79343,0.0133 c 2.12445,-0.27846 3.55922,-0.8558 4.5431,-1.8281 1.5245,-1.50656 1.87264,-2.94157 0.9497,-3.91458 -0.3773,-0.39776 -1.05915,-0.7018 -1.68689,-0.75219 -0.47498,-0.0381 -0.62707,-0.0103 -1.03605,0.18983 -0.46399,0.22701 -1.13646,0.86397 -1.85959,1.76139 -0.4265,0.5293 -1.1891,1.04566 -1.93253,1.30853 -0.55634,0.19671 -0.57228,0.20929 -0.2157,0.17014 0.71525,-0.0785 1.25359,-0.43354 2.38143,-1.5705 0.58463,-0.58934 1.0808,-1.05369 1.10261,-1.03188 0.0826,0.0826 -0.58516,1.06009 -1.04923,1.53588 -1.01071,1.03624 -1.91891,1.40123 -3.4895,1.40237 -0.8863,6.3e-4 -1.11661,-0.0316 -1.68336,-0.23536 -0.36112,-0.12986 -0.81161,-0.34354 -1.00109,-0.47486 -0.46339,-0.32112 -1.37253,-1.22991 -1.68305,-1.68238 -0.4523,-0.65908 -0.98964,-2.41274 -0.98964,-3.22979 l 0,-0.39625 5.46875,0.01 c 3.00781,0.005 5.70982,0.0362 6.00447,0.0687 l 0.53571,0.059 -0.625,0.0633 c -0.34375,0.0348 -1.9308,0.14419 -3.52679,0.24308 -4.32964,0.26825 -5.56139,0.42937 -6.48787,0.84862 -0.54843,0.24817 -0.6906,0.47272 -0.63146,0.99735 0.12716,1.12817 2.76017,3.43939 3.89473,3.41874 0.30195,-0.005 0.29127,-0.0143 -0.16523,-0.13704 -0.80135,-0.21536 -1.5957,-0.71628 -2.3421,-1.47696 -1.23782,-1.2615 -1.55092,-1.91577 -1.13299,-2.36762 0.60794,-0.65731 2.08717,-0.89533 7.14813,-1.1502 1.4571,-0.0734 2.97003,-0.17364 3.36206,-0.2228 1.40718,-0.17644 2.05966,-0.49817 2.30514,-1.13664 0.26395,-0.68653 0.0512,-2.52347 -0.59427,-5.13153 -0.0982,-0.3969 -0.29944,-0.89109 -0.47257,-1.16072 -1.40958,-2.19515 -5.31899,-4.03018 -8.27642,-3.88486 -1.43155,0.0704 -3.20465,0.77989 -4.62677,1.8515 -2.44113,1.83945 -3.43438,4.6685 -3.2915,9.37516 0.0793,2.61303 0.31274,3.83435 1.00192,5.24259 0.87064,1.77901 2.45271,2.81452 4.86278,3.18285 1.01306,0.15482 4.22224,0.18888 5.23907,0.0556 l 0,0 z M 142.14898,81.278218 c 0.73525,-0.148853 1.78576,-0.569993 2.57308,-1.031531 0.28525,-0.167215 1.018,-0.805397 1.67415,-1.458083 1.25992,-1.25329 2.09099,-2.382801 2.2839,-3.104101 0.10245,-0.383046 0.0964,-0.442533 -0.0678,-0.66715 -0.43462,-0.59463 -1.60776,-0.797912 -2.99055,-0.518201 -1.26586,0.256059 -1.99743,0.755018 -2.59146,1.767468 -0.18041,0.30749 -0.35601,0.459604 -0.75893,0.657445 -0.48351,0.237409 -0.60048,0.257089 -1.50636,0.25344 -0.83425,-0.0034 -1.0897,-0.04111 -1.69642,-0.250693 -0.86446,-0.29861 -1.72979,-0.797377 -2.34847,-1.353625 -0.37589,-0.33795 -2.24975,-2.935544 -2.24975,-3.118651 0,-0.02742 3.04353,-0.05383 6.76339,-0.05869 3.71987,-0.0049 6.98438,-0.03499 7.25447,-0.06696 l 0.49107,-0.05813 -0.0283,-0.3125 c -0.10282,-1.135879 -0.68142,-4.159608 -0.94892,-4.959036 -0.56823,-1.698125 -1.39468,-3.110415 -2.2926,-3.917722 -1.85621,-1.66889 -6.92888,-2.37165 -10.08297,-1.39688 -1.43935,0.444829 -2.58615,1.632206 -3.57427,3.700744 -1.07088,2.241806 -1.58431,4.663455 -1.48613,7.009587 0.0741,1.771611 0.52028,3.15594 1.48961,4.62203 1.62684,2.460566 4.47732,4.166554 7.41464,4.437595 0.63285,0.0584 1.94614,-0.02807 2.67857,-0.176347 l 0,0 z m 48.48215,0.05276 c 2.65602,-0.277003 4.77581,-1.388444 6.16547,-3.232655 2.21812,-2.943665 2.7397,-7.919286 1.23778,-11.807671 -0.72875,-1.88667 -1.96504,-3.409454 -3.35521,-4.132696 -2.51233,-1.307058 -6.44978,-1.274683 -9.47038,0.07787 -0.80941,0.362429 -1.51635,0.871499 -2.14808,1.546823 -0.98891,1.05714 -1.8145,3.09265 -2.17525,5.3631 -0.17226,1.084148 -0.14613,4.006669 0.045,5.031386 0.57982,3.108744 1.917,5.000747 4.39471,6.218184 0.98036,0.481703 2.29829,0.845921 3.38495,0.935451 0.4427,0.03647 0.86519,0.07135 0.93885,0.07749 0.0737,0.0061 0.51563,-0.02863 0.98215,-0.07728 l 0,0 z m -18.60075,-0.131263 c 2.45598,-0.39833 4.49351,-1.545598 5.94708,-3.34861 2.28526,-2.834652 1.22101,-5.541959 -3.06608,-7.79964 -1.18626,-0.624711 -2.10172,-1.000236 -4.3249,-1.774083 -1.9762,-0.687882 -2.55974,-0.96417 -2.82593,-1.337989 -0.28556,-0.401043 -0.15472,-0.726011 0.59363,-1.474358 0.77021,-0.770216 1.27211,-1.018523 2.06854,-1.023391 0.8132,-0.005 1.35441,0.279029 2.3635,1.240246 1.28149,1.220712 2.04469,1.578569 3.38062,1.585131 0.64936,0.0032 0.81566,-0.0285 1.15183,-0.219487 0.57493,-0.32662 0.74688,-0.69512 0.69284,-1.484793 -0.0618,-0.903662 -0.3782,-1.530352 -1.16708,-2.311921 -0.99338,-0.984159 -2.36841,-1.579015 -4.35098,-1.882291 -1.23493,-0.188907 -3.62825,-0.123184 -4.71947,0.129601 -3.11541,0.721702 -4.82658,2.417606 -4.81912,4.776108 0.004,1.310692 0.53631,2.447213 1.6954,3.620781 1.08293,1.096457 2.41227,1.891988 4.64158,2.77772 2.64965,1.052734 4.39034,2.357507 4.52953,3.395207 0.0415,0.309211 0.0116,0.38493 -0.2589,0.655392 -0.93091,0.930902 -4.33133,0.835279 -5.63907,-0.158576 -0.20494,-0.155758 -0.48017,-0.481012 -0.6116,-0.722788 -0.13142,-0.241776 -0.3725,-0.577422 -0.53571,-0.745881 -1.15838,-1.195617 -3.35129,-0.863392 -3.82762,0.579881 -0.0687,0.208055 -0.0908,0.591275 -0.06,1.04025 0.0654,0.95451 0.42653,1.683881 1.22495,2.474167 1.68509,1.667922 4.9355,2.492879 7.91695,2.009324 l 0,0 z M 111.4347,80.274382 c 0.38342,-0.179737 0.66419,-0.709811 0.81064,-1.53042 0.0627,-0.351517 0.12079,-2.117564 0.14724,-4.478834 l 0.0437,-3.898477 3.98582,-0.04161 c 3.20107,-0.03342 4.13526,-0.07053 4.74476,-0.188479 4.49053,-0.869016 6.87895,-3.088432 7.32264,-6.804494 0.28612,-2.396397 -0.51494,-4.670315 -2.31895,-6.582661 -0.99474,-1.054478 -1.96117,-1.713353 -2.95231,-2.01276 -1.60212,-0.483977 -2.65034,-0.546095 -9.21656,-0.546181 l -5.69196,-7.5e-5 5e-5,10.290179 c 3e-5,6.05662 0.0385,10.965716 0.0935,11.932154 0.20526,3.607947 0.53323,4.191814 2.27256,4.045664 0.24553,-0.02063 0.58705,-0.103434 0.75893,-0.184005 l 0,0 z m 43.43434,-0.0041 c 0.14559,-0.08181 0.34212,-0.281323 0.43676,-0.443358 0.33974,-0.581713 0.41567,-1.285899 0.50193,-4.654429 0.1157,-4.518098 0.21869,-5.659356 0.63285,-7.012662 0.56921,-1.859906 1.46242,-2.634915 3.2295,-2.802096 0.95505,-0.09036 1.43161,-0.282939 1.97322,-0.797387 0.70074,-0.665582 1.04768,-1.807102 0.73376,-2.414163 -0.35176,-0.680221 -1.42438,-0.822071 -6.63433,-0.877356 l -4.04018,-0.04287 0.003,6.05809 c 0.003,6.666169 0.0998,10.39936 0.29912,11.526941 0.13678,0.773685 0.38723,1.291772 0.7107,1.470146 0.46782,0.25798 1.68657,0.251839 2.15403,-0.01085 l -4e-5,0 z m 49.66492,0.173692 c 0.40325,-0.04637 0.83319,-0.149839 0.95543,-0.229932 0.29159,-0.191059 0.58312,-0.806354 0.68561,-1.447041 0.0452,-0.282782 0.11979,-2.46281 0.16567,-4.844506 0.0824,-4.275704 0.15733,-5.430761 0.41961,-6.466839 0.40843,-1.613401 1.41715,-2.403995 3.06727,-2.403995 1.00577,0 1.64027,0.241922 2.2793,0.86905 0.95355,0.935792 1.0885,1.754806 1.2007,7.287498 0.0463,2.283482 0.12532,4.513784 0.17555,4.956227 0.21522,1.895485 0.55181,2.293123 1.93782,2.28926 1.20967,-0.0034 1.51592,-0.297677 1.79776,-1.727691 0.12539,-0.636203 0.14658,-1.523973 0.14979,-6.276724 0.004,-5.79358 -0.0278,-6.406184 -0.40316,-7.796715 -0.23423,-0.867651 -0.46134,-1.292509 -0.98937,-1.850826 -0.52703,-0.557255 -1.18867,-0.876822 -2.33947,-1.129928 -0.70594,-0.155269 -1.25151,-0.186043 -3.98749,-0.224923 -3.25252,-0.04622 -8.39283,0.0408 -8.39289,0.142082 -2e-5,0.03121 1.61717,0.04429 3.59375,0.02907 l 3.59379,-0.02767 -0.75893,0.385984 c -0.87274,0.443866 -1.47305,0.896849 -2.0759,1.566435 l -0.4241,0.471058 0,-0.882734 c 0,-0.485503 -0.0251,-1.008291 -0.0558,-1.161751 l -0.0558,-0.279018 -1.44896,0 -1.44894,0 -0.0577,0.683114 c -0.0318,0.375713 -0.0625,4.343347 -0.0683,8.816965 -0.006,4.473617 -0.0396,8.254385 -0.075,8.401707 l -0.0645,0.267857 -0.11028,-0.267857 c -0.30775,-0.74745 -0.37336,-2.04066 -0.45523,-8.973215 l -0.0648,-5.491071 0.0246,6.5625 c 0.0254,6.750847 0.0485,7.220308 0.3945,8.002512 0.21462,0.485178 0.51158,0.67171 1.19305,0.749397 0.81692,0.09313 0.84724,0.09316 1.64249,0.0017 l 0,-10e-7 z"
       id="path3210"
       inkscape:connector-curvature="0"
       transform="translate(0,308.2677)" />
    <path
       style="fill:#00ffff;fill-opacity:1"
       d="m 185.28077,112.76182 c 0.001,-12.32503 0.005,-12.62629 0.16551,-12.32143 0.48794,0.92747 0.57073,2.65267 0.57413,11.96429 0.003,8.17881 -0.0705,10.6989 -0.3505,12.01869 -0.0741,0.34912 -0.19217,0.71073 -0.26246,0.80357 -0.11105,0.1467 -0.12764,-1.48564 -0.12668,-12.46512 z"
       id="path3212"
       inkscape:connector-curvature="0"
       transform="translate(0,308.2677)" />
    <path
       style="fill:#00ffff;fill-opacity:1"
       d=""
       id="path3214"
       inkscape:connector-curvature="0"
       transform="translate(0,308.2677)" />
    <path
       style="fill:#00ffff;fill-opacity:1"
       d="m 145.64914,394.18841 c -1.48379,-0.38872 -2.74071,-1.41502 -3.39846,-2.77488 -0.33273,-0.6879 -0.77725,-2.2054 -0.70741,-2.41494 0.0162,-0.0485 0.37718,0.42682 0.80225,1.05627 1.11682,1.65383 1.70552,2.20601 3.02715,2.83939 1.90258,0.91179 4.14762,0.73519 4.80053,-0.37763 0.44034,-0.75052 1.2409,-1.50159 1.41498,-1.32751 0.0746,0.0746 -0.40769,0.94587 -0.79635,1.43878 -1.16583,1.47851 -3.1535,2.08166 -5.14269,1.56052 z"
       id="path3216"
       inkscape:connector-curvature="0"
       transform="translate(0,308.2677)" />
    <path
       style="fill:#00ffff;fill-opacity:1"
       d="m 181.47934,386.27833 c -0.65943,-0.23232 -2.04495,-0.63822 -4.55357,-1.334 -0.83482,-0.23155 -1.72449,-0.51688 -1.97704,-0.63407 -0.88879,-0.41242 -1.46786,-1.31759 -1.32615,-2.07296 0.0907,-0.4834 0.2614,-0.75262 0.76347,-1.20402 0.62331,-0.56041 1.31038,-0.77116 2.71829,-0.83381 1.95793,-0.0871 3.07702,0.32191 3.92594,1.43489 0.23803,0.31207 0.62808,1.2907 0.54683,1.37195 -0.10775,0.10775 -0.95856,-0.51257 -1.62345,-1.18366 -0.92446,-0.93306 -1.59679,-1.29297 -2.41535,-1.29297 -0.89207,0 -1.57616,0.34208 -2.32119,1.16071 -0.67363,0.74018 -0.76267,1.14002 -0.35492,1.59377 0.29704,0.33055 1.07434,0.68055 2.88483,1.29897 2.03374,0.69467 4.49124,1.7264 4.49124,1.88555 0,0.0677 -0.0918,0.0447 -0.75893,-0.19035 z"
       id="path3218"
       inkscape:connector-curvature="0"
       transform="translate(0,308.2677)" />
    <path
       style="fill:#00ffff;fill-opacity:1"
       d="m 149.47041,441.61241 c 0.41741,-0.13735 1.02009,-0.38209 1.33929,-0.54386 0.61892,-0.31367 2.05888,-1.26761 2.2365,-1.48163 0.14573,-0.17559 0.2635,-0.16167 0.2635,0.0311 0,0.21301 0.23857,1.13068 0.41689,1.60358 l 0.14308,0.37947 1.72894,0 c 0.95092,0 1.72894,0.0337 1.72894,0.0748 0,0.0708 -4.94908,0.19657 -7.45535,0.18949 l -1.16072,-0.003 0.75893,-0.24973 0,0 z"
       id="path3220"
       inkscape:connector-curvature="0"
       transform="translate(0,308.2677)" />
    <path
       style="fill:#00ffff;fill-opacity:1"
       d="m 208.99422,396.04739 c -0.53437,-0.78748 -0.5908,-1.80987 -0.59321,-10.74889 l -0.002,-7.50796 2.47768,-0.0588 c 1.36272,-0.0324 3.08036,-0.0581 3.81697,-0.0571 l 1.33928,0.002 -0.59337,0.20945 c -0.97652,0.3447 -1.59085,0.75005 -2.46466,1.62622 l -0.8259,0.82812 0,-1.24449 0,-1.24449 -1.47279,0 -1.4728,0 -0.0227,9.21875 c -0.0221,8.97133 -0.0271,9.21227 -0.18643,8.97753 z"
       id="path3222"
       inkscape:connector-curvature="0"
       transform="translate(0,308.2677)" />
    <path
       style="fill:#ff00ff;fill-opacity:1"
       d="m 212.50613,390.75935 c 0,-3.40091 0.0362,-5.74502 0.0953,-6.17004 0.21685,-1.55905 0.77419,-2.61839 1.74032,-3.30781 2.16117,-1.54218 5.21596,-1.19443 6.33882,0.72159 0.49196,0.83945 0.51286,1.11562 0.55081,7.27659 0.0192,3.1183 0.0226,5.97098 0.007,6.33928 l -0.0274,0.66965 -0.19379,-0.362 c -0.39141,-0.73111 -0.45766,-1.53194 -0.56836,-6.87015 -0.0983,-4.74177 -0.21155,-5.64914 -0.82627,-6.62235 -0.99276,-1.57171 -3.8286,-1.76802 -5.13091,-0.35518 -0.90113,0.97761 -1.18098,3.05549 -1.18199,8.77611 -5.4e-4,3.06358 -0.0976,4.25206 -0.40203,4.92017 -0.11746,0.25781 -0.25595,0.46875 -0.30778,0.46875 -0.0651,0 -0.0942,-1.69604 -0.0942,-5.48461 z"
       id="path3224"
       inkscape:connector-curvature="0"
       transform="translate(0,308.2677)" />
    <path
       style="fill:#ff00ff;fill-opacity:1"
       d="m 773.01188,223.79753 -1.6e-4,-69.64285 114.99467,0 114.99471,0 0,69.64285 0,69.64286 -114.99455,0 -114.9945,0 -1.7e-4,-69.64286 z m 69.23293,33.59313 c 2.94779,-1.52435 3.61339,-4.38004 3.61339,-15.50268 l 0,-9.91068 -2.67857,0.0361 c -1.47321,0.0198 -4.04316,-0.16671 -5.711,-0.4146 -2.7767,-0.41272 -3.23879,-0.24437 -5.47938,1.99622 -7.3501,7.3501 -0.67178,21.14133 8.11493,16.75794 l 2.18229,-1.08868 -0.44567,1.90947 c -0.98254,4.20969 -4.64475,5.44296 -7.9369,2.6728 -1.19927,-1.00914 -2.69659,-1.83478 -3.32738,-1.83478 -1.7405,0 -1.39351,2.67546 0.60636,4.67532 1.40267,1.40267 2.48098,1.75325 5.39261,1.75325 2.00166,0 4.55285,-0.47238 5.66932,-1.04973 z m 21.22819,-7.47508 c 1.24171,-0.75715 2.47641,-2.06588 2.74379,-2.9083 0.55781,-1.75751 0.53259,-1.79685 -1.56509,-2.44105 -1.16102,-0.35657 -1.76993,-0.0947 -2.36485,1.01688 -1.82258,3.40552 -6.85391,3.12745 -8.49274,-0.46938 -0.43618,-0.9573 -0.79305,-1.88615 -0.79305,-2.06409 0,-0.17794 3.05357,-0.32354 6.78572,-0.32354 l 6.78571,0 0,-2.53547 c 0,-7.1518 -7.24329,-11.22194 -13.34727,-7.50008 -2.61294,1.59323 -3.41418,2.89277 -4.08909,6.63211 -0.6834,3.78638 0.64562,7.97171 3.21894,10.13702 2.74516,2.3099 7.74138,2.51477 11.11793,0.4559 z m 10.24235,-4.73643 c 0,-7.75049 1.17144,-10.27405 4.78093,-10.29925 2.8078,-0.0196 3.7905,2.51869 3.7905,9.79086 0,6.59237 0.009,6.62677 1.78571,6.62677 l 1.78571,0 0,-8.21428 c 0,-7.22664 -0.16957,-8.38387 -1.4104,-9.62469 -1.76715,-1.76715 -4.46332,-2.47064 -6.99565,-1.82532 -1.0731,0.27346 -3.15645,0.46275 -4.62966,0.42064 l -2.67857,-0.0766 0,9.66012 0,9.66011 1.78571,0 c 1.76578,0 1.78572,-0.0683 1.78572,-6.11838 z m 30.76923,4.03047 c 2.47575,-2.47575 2.66265,-4.02374 0.55242,-4.57558 -1.10085,-0.28788 -2.0918,0.194 -3.50086,1.70241 -2.25697,2.41609 -1.95702,2.33074 -4.75861,1.3541 -1.75023,-0.61013 -3.77647,-3.10019 -3.77647,-4.64091 0,-0.17794 3.05357,-0.32354 6.78572,-0.32354 l 6.78571,0 0,-2.53547 c 0,-5.11824 -3.63832,-8.8931 -8.57143,-8.8931 -1.21759,0 -3.15668,0.48759 -4.30909,1.08352 -5.40049,2.7927 -6.23306,12.64984 -1.43184,16.9522 1.83529,1.6446 2.83852,1.96428 6.16429,1.96428 3.438,0 4.25306,-0.28081 6.06016,-2.08791 z m 9.2413,-3.80494 c 0.0128,-7.1724 0.94236,-9.37996 4.07831,-9.68554 1.54996,-0.15103 2.41913,-0.68938 2.73872,-1.69631 0.60917,-1.91933 -0.85589,-2.88004 -3.61328,-2.36943 -1.17857,0.21825 -3.1875,0.37811 -4.46428,0.35525 l -2.32143,-0.0416 0,9.66522 0,9.66524 1.78571,0 c 1.75962,0 1.78587,-0.0861 1.79625,-5.89286 l 0,0 z m 19.04377,4.83169 c 1.34017,-0.93869 1.56202,-0.93869 1.92223,0 0.22396,0.58364 1.25835,1.06116 2.29865,1.06116 1.61291,0 1.82801,-0.23665 1.46074,-1.60714 -0.23689,-0.88393 -0.43509,-4.54475 -0.44046,-8.13516 -0.0119,-7.97952 -0.89394,-9.49651 -5.84609,-10.05469 -4.44622,-0.50116 -8.21292,0.83924 -9.53322,3.39244 -1.36328,2.6363 -1.3702,2.6071 0.71138,3.00502 1.30014,0.24853 2.06342,-0.1088 2.8736,-1.3453 1.83929,-2.80711 7.95188,-2.06356 7.38155,0.8979 -0.19895,1.03308 -1.31092,1.52745 -4.86641,2.16357 -3.54922,0.635 -4.99894,1.27839 -6.30696,2.79905 -2.01963,2.34797 -1.73539,5.64744 0.65769,7.63431 1.87962,1.56058 7.57048,1.67152 9.6873,0.18884 l 0,0 z m 17.37427,-0.67487 c 0,-1.25652 -0.44392,-1.79908 -1.60714,-1.96429 -1.50813,-0.21418 -1.61986,-0.61331 -1.81352,-6.47825 l -0.20639,-6.25 1.81353,0 c 1.33733,0 1.81352,-0.37511 1.81352,-1.42857 0,-1.04762 -0.47619,-1.42857 -1.78571,-1.42857 -1.64022,0 -1.78572,-0.26191 -1.78572,-3.21429 0,-3.4691 -0.10671,-3.5897 -2.18981,-2.47487 -0.95785,0.51263 -1.38162,1.4985 -1.38162,3.21429 0,1.99868 -0.27487,2.47487 -1.42857,2.47487 -0.95238,0 -1.42857,0.47619 -1.42857,1.42857 0,0.95238 0.47619,1.42857 1.42857,1.42857 1.33744,0 1.42857,0.47619 1.42857,7.46451 0,8.28404 0.3323,8.90034 4.82143,8.94234 1.98824,0.0186 2.32143,-0.22744 2.32143,-1.71431 l 0,0 z m 15.74094,-0.22825 c 3.33472,-2.98824 4.26253,-9.54422 1.9766,-13.9668 -1.03304,-1.9986 -4.95483,-4.06357 -7.71754,-4.06357 -7.13709,0 -11.15966,7.42516 -8.12771,15.00275 1.40047,3.50013 3.78205,4.92514 8.29501,4.9633 2.70536,0.0229 3.81994,-0.3642 5.57364,-1.93568 z m 9.97335,-3.64342 c 0,-3.08423 0.35287,-6.61994 0.78416,-7.85714 0.66813,-1.91661 1.1366,-2.24944 3.16615,-2.24944 1.80131,0 2.49942,-0.37 2.8637,-1.51775 0.6235,-1.96447 -0.81429,-2.9279 -3.59973,-2.4121 -1.17857,0.21825 -3.1875,0.37811 -4.46428,0.35525 l -2.32143,-0.0416 0,9.66522 0,9.66524 1.78571,0 c 1.75312,0 1.78572,-0.10234 1.78572,-5.6077 l 0,-1e-5 z m -141.42858,-45.46373 0,-6.07142 6.42857,0 6.42858,0 0,6.07142 0,6.07143 2.14285,0 2.14286,0 0,-13.21428 0,-13.21429 -2.14286,0 -2.14285,0 0,5.35714 0,5.35715 -6.42858,0 -6.42857,0 0,-5.35715 0,-5.35714 -2.14285,0 -2.14286,0 0,13.21429 0,13.21428 2.14286,0 2.14285,0 0,-6.07143 z m 29.28572,4.28572 c 0,-1.27588 -0.38605,-1.78572 -1.35215,-1.78572 -1.82823,0 -2.21928,-1.33183 -2.21928,-7.55841 0,-5.17579 0.0414,-5.29873 1.78571,-5.29873 1.30952,0 1.78572,-0.38095 1.78572,-1.42857 0,-1.04762 -0.4762,-1.42857 -1.78572,-1.42857 -1.64021,0 -1.78571,-0.26191 -1.78571,-3.21429 0,-3.4691 -0.10672,-3.58971 -2.18982,-2.47487 -0.95785,0.51263 -1.38161,1.4985 -1.38161,3.21429 0,1.72369 -0.3252,2.47487 -1.07143,2.47487 -0.59523,0 -1.07143,0.63492 -1.07143,1.42857 0,0.79365 0.4762,1.42857 1.07143,1.42857 0.88044,0 1.07143,1.26417 1.07143,7.09184 0,8.06241 0.64064,9.33673 4.69388,9.33673 2.13605,0 2.44898,-0.22817 2.44898,-1.78571 z m 6.42857,-5.12233 c 0,-7.5655 0.83308,-9.52053 4.05696,-9.52053 2.35757,0 3.0859,2.37114 3.0859,10.0465 0,6.33135 0.0142,6.38207 1.78571,6.38207 1.77945,0 1.78571,-0.0238 1.78571,-6.78571 0,-5.83333 0.2005,-6.98622 1.42858,-8.21429 0.78571,-0.78571 2.00714,-1.42857 2.71428,-1.42857 2.50962,0 3,1.48283 3,9.07143 l 0,7.35714 2.14286,0 2.14286,0 -0.004,-6.60714 c -0.005,-8.2397 -0.83904,-11.46818 -3.2461,-12.56492 -2.44629,-1.1146 -4.26378,-1.04214 -6.80359,0.27125 -1.91326,0.98938 -2.28234,0.98938 -3.69489,0 -2.01658,-1.41247 -5.49471,-1.40657 -7.52107,0.0128 -0.88951,0.62324 -1.58721,0.7802 -1.58721,0.35714 0,-0.41514 -0.80357,-0.75479 -1.78571,-0.75479 l -1.78572,0 0,9.64286 0,9.64285 2.14286,0 2.14286,0 0,-6.90804 0,0 z m 29.28571,-6.30624 0,-13.21429 -1.78571,0 -1.78572,0 0,13.21429 0,13.21428 1.78572,0 1.78571,0 0,-13.21428 z"
       id="path3226"
       inkscape:connector-curvature="0"
       transform="translate(0,308.2677)" />
    <path
       style="fill:#ff00ff;fill-opacity:1"
       d="m 835.15774,246.98459 c -1.63534,-0.95418 -2.90023,-5.10313 -2.31072,-7.57942 0.68803,-2.89017 2.34944,-4.53621 4.57858,-4.53621 2.91445,0 4.64285,2.39317 4.64285,6.42857 0,5.20952 -3.20656,7.84831 -6.91071,5.68706 z"
       id="path3228"
       inkscape:connector-curvature="0"
       transform="translate(0,308.2677)" />
    <path
       style="fill:#ff00ff;fill-opacity:1"
       d="m 926.93162,248.32913 c -1.23038,-0.38204 -2.0203,-1.41701 -2.0203,-2.64703 0,-1.25363 0.74877,-2.21713 2.04948,-2.63721 0.35334,-0.11411 1.52831,-0.35431 2.61104,-0.53376 1.66425,-0.27583 3.23756,-0.62514 4.52555,-1.00476 0.27253,-0.0803 0.28411,-0.0526 0.28411,0.67947 0,1.22002 -0.24514,2.68519 -0.56881,3.39977 -0.57586,1.27131 -1.94479,2.32866 -3.55935,2.74919 -0.89379,0.23281 -2.56287,0.22996 -3.32172,-0.006 z"
       id="path3230"
       inkscape:connector-curvature="0"
       transform="translate(0,308.2677)" />
    <path
       style="fill:#ff00ff;fill-opacity:1"
       d="m 958.48739,248.16554 c -1.85255,-0.61399 -3.11539,-2.16147 -3.58933,-4.39833 -0.23903,-1.12812 -0.23712,-3.76243 0.004,-4.90364 0.51638,-2.44864 2.12583,-4.12641 4.31919,-4.50253 2.17359,-0.37273 4.30266,0.67391 5.37363,2.64163 0.60536,1.11225 0.8614,2.3986 0.86049,4.32315 -0.001,2.68423 -0.53529,4.32908 -1.82333,5.61617 -0.95686,0.95616 -1.89082,1.35558 -3.30179,1.41205 -0.86331,0.0346 -1.30608,-0.0107 -1.8424,-0.1885 z"
       id="path3232"
       inkscape:connector-curvature="0"
       transform="translate(0,308.2677)" />
    <path
       style="fill:#ff00ff;fill-opacity:1"
       d="m 892.96524,239.06423 c 0,-0.5822 0.44147,-1.84719 0.88689,-2.54132 0.50333,-0.78437 1.23358,-1.39502 2.21553,-1.85268 0.66205,-0.30857 0.89505,-0.34878 2.01148,-0.34717 1.00417,0.001 1.40487,0.0588 1.95717,0.28003 0.93718,0.37541 1.8886,1.23589 2.36062,2.13499 0.33691,0.64175 0.46529,1.0583 0.74261,2.4096 l 0.0583,0.2841 -5.1163,0 -5.11631,0 0,-0.36755 z"
       id="path3234"
       inkscape:connector-curvature="0"
       transform="translate(0,308.2677)" />
    <path
       style="fill:#ff00ff;fill-opacity:1"
       d="m 852.87707,238.89514 c 0.47714,-2.92351 2.72094,-4.79706 5.51564,-4.60551 1.70517,0.11687 3.33974,1.15304 4.00766,2.5405 0.28221,0.58621 0.6391,1.8776 0.6391,2.31251 l 0,0.28914 -5.12499,0 -5.125,0 0.0876,-0.53664 z"
       id="path3236"
       inkscape:connector-curvature="0"
       transform="translate(0,308.2677)" />
  </g>
</svg>
