<?xml version="1.0" encoding="UTF-8" standalone="no"?>
<!-- Generator: Adobe Illustrator 13.0.0, SVG Export Plug-In . SVG Version: 6.00 Build 14948)  -->

<svg
   xmlns:dc="http://purl.org/dc/elements/1.1/"
   xmlns:cc="http://creativecommons.org/ns#"
   xmlns:rdf="http://www.w3.org/1999/02/22-rdf-syntax-ns#"
   xmlns:svg="http://www.w3.org/2000/svg"
   xmlns="http://www.w3.org/2000/svg"
   xmlns:xlink="http://www.w3.org/1999/xlink"
   xmlns:sodipodi="http://sodipodi.sourceforge.net/DTD/sodipodi-0.dtd"
   xmlns:inkscape="http://www.inkscape.org/namespaces/inkscape"
   version="1.1"
   id="Layer_1"
   x="0px"
   y="0px"
   width="300px"
   height="550px"
   viewBox="0 0 300 550"
   style="enable-background:new 0 0 300 550;"
   xml:space="preserve"
   inkscape:version="0.48.2 r9819"
   sodipodi:docname="javaruby.svg"><metadata
   id="metadata33"><rdf:RDF><cc:Work
       rdf:about=""><dc:format>image/svg+xml</dc:format><dc:type
         rdf:resource="http://purl.org/dc/dcmitype/StillImage" /></cc:Work></rdf:RDF></metadata><defs
   id="defs31"><linearGradient
     id="XMLID_25_-9"
     gradientUnits="userSpaceOnUse"
     x1="-18.5557"
     y1="155.10451"
     x2="135.0152"
     y2="-2.8092999"><stop
       offset="0"
       style="stop-color:#BD0012"
       id="stop3380-7" /><stop
       offset="0"
       style="stop-color:#BD0012"
       id="stop3382-9" /><stop
       offset="0.07"
       style="stop-color:#FFFFFF"
       id="stop3384-9" /><stop
       offset="0.17"
       style="stop-color:#FFFFFF"
       id="stop3386-3" /><stop
       offset="0.27"
       style="stop-color:#C82F1C"
       id="stop3388-2" /><stop
       offset="0.33"
       style="stop-color:#820C01"
       id="stop3390-4" /><stop
       offset="0.46"
       style="stop-color:#A31601"
       id="stop3392-3" /><stop
       offset="0.72"
       style="stop-color:#B31301"
       id="stop3394-7" /><stop
       offset="0.99"
       style="stop-color:#E82609"
       id="stop3396-1" /><stop
       offset="1"
       style="stop-color:#E82609"
       id="stop3398-2" /></linearGradient><linearGradient
     y2="141.7533"
     x2="132.27631"
     y1="215.5488"
     x1="174.0737"
     gradientUnits="userSpaceOnUse"
     id="linearGradient3448"
     xlink:href="#XMLID_17_-9"
     inkscape:collect="always" /><linearGradient
     id="XMLID_17_-9"
     gradientUnits="userSpaceOnUse"
     x1="174.0737"
     y1="215.5488"
     x2="132.27631"
     y2="141.7533"><stop
       offset="0"
       style="stop-color:#FB7655"
       id="stop3272-4" /><stop
       offset="0"
       style="stop-color:#FB7655"
       id="stop3274-5" /><stop
       offset="0.41"
       style="stop-color:#E42B1E"
       id="stop3276-1" /><stop
       offset="0.99"
       style="stop-color:#990000"
       id="stop3278-0" /><stop
       offset="1"
       style="stop-color:#990000"
       id="stop3280-3" /></linearGradient><linearGradient
     id="XMLID_18_-7"
     gradientUnits="userSpaceOnUse"
     x1="194.895"
     y1="153.5576"
     x2="141.0276"
     y2="117.4093"><stop
       offset="0"
       style="stop-color:#871101"
       id="stop3285-8" /><stop
       offset="0"
       style="stop-color:#871101"
       id="stop3287-8" /><stop
       offset="0.99"
       style="stop-color:#911209"
       id="stop3289-6" /><stop
       offset="1"
       style="stop-color:#911209"
       id="stop3291-0" /></linearGradient><linearGradient
     id="XMLID_19_-4"
     gradientUnits="userSpaceOnUse"
     x1="151.79539"
     y1="217.7852"
     x2="97.929703"
     y2="181.638"><stop
       offset="0"
       style="stop-color:#871101"
       id="stop3296-6" /><stop
       offset="0"
       style="stop-color:#871101"
       id="stop3298-7" /><stop
       offset="0.99"
       style="stop-color:#911209"
       id="stop3300-6" /><stop
       offset="1"
       style="stop-color:#911209"
       id="stop3302-0" /></linearGradient><linearGradient
     id="XMLID_20_-9"
     gradientUnits="userSpaceOnUse"
     x1="38.696301"
     y1="127.3906"
     x2="47.046902"
     y2="181.66141"><stop
       offset="0"
       style="stop-color:#FFFFFF"
       id="stop3307-7" /><stop
       offset="0"
       style="stop-color:#FFFFFF"
       id="stop3309-5" /><stop
       offset="0.23"
       style="stop-color:#E57252"
       id="stop3311-9" /><stop
       offset="0.46"
       style="stop-color:#DE3B20"
       id="stop3313-7" /><stop
       offset="0.99"
       style="stop-color:#A60003"
       id="stop3315-8" /><stop
       offset="1"
       style="stop-color:#A60003"
       id="stop3317-5" /></linearGradient><linearGradient
     id="XMLID_21_-3"
     gradientUnits="userSpaceOnUse"
     x1="96.132797"
     y1="76.715302"
     x2="99.209602"
     y2="132.1021"><stop
       offset="0"
       style="stop-color:#FFFFFF"
       id="stop3322-3" /><stop
       offset="0"
       style="stop-color:#FFFFFF"
       id="stop3324-8" /><stop
       offset="0.23"
       style="stop-color:#E4714E"
       id="stop3326-3" /><stop
       offset="0.56"
       style="stop-color:#BE1A0D"
       id="stop3328-7" /><stop
       offset="0.99"
       style="stop-color:#A80D00"
       id="stop3330-9" /><stop
       offset="1"
       style="stop-color:#A80D00"
       id="stop3332-3" /></linearGradient><linearGradient
     id="XMLID_22_-7"
     gradientUnits="userSpaceOnUse"
     x1="147.103"
     y1="25.521"
     x2="156.3141"
     y2="65.216202"><stop
       offset="0"
       style="stop-color:#FFFFFF"
       id="stop3337-8" /><stop
       offset="0"
       style="stop-color:#FFFFFF"
       id="stop3339-7" /><stop
       offset="0.18"
       style="stop-color:#E46342"
       id="stop3341-4" /><stop
       offset="0.4"
       style="stop-color:#C82410"
       id="stop3343-1" /><stop
       offset="0.99"
       style="stop-color:#A80D00"
       id="stop3345-9" /><stop
       offset="1"
       style="stop-color:#A80D00"
       id="stop3347-0" /></linearGradient><linearGradient
     id="XMLID_23_-9"
     gradientUnits="userSpaceOnUse"
     x1="118.9761"
     y1="11.5415"
     x2="158.66859"
     y2="-8.3048"><stop
       offset="0"
       style="stop-color:#FFFFFF"
       id="stop3352-8" /><stop
       offset="0"
       style="stop-color:#FFFFFF"
       id="stop3354-8" /><stop
       offset="0.54"
       style="stop-color:#C81F11"
       id="stop3356-5" /><stop
       offset="0.99"
       style="stop-color:#BF0905"
       id="stop3358-8" /><stop
       offset="1"
       style="stop-color:#BF0905"
       id="stop3360-4" /></linearGradient><linearGradient
     id="XMLID_24_-3"
     gradientUnits="userSpaceOnUse"
     x1="3.9033"
     y1="113.5547"
     x2="7.1701999"
     y2="146.2628"><stop
       offset="0"
       style="stop-color:#FFFFFF"
       id="stop3365-7" /><stop
       offset="0"
       style="stop-color:#FFFFFF"
       id="stop3367-1" /><stop
       offset="0.31"
       style="stop-color:#DE4024"
       id="stop3369-3" /><stop
       offset="0.99"
       style="stop-color:#BF190B"
       id="stop3371-8" /><stop
       offset="1"
       style="stop-color:#BF190B"
       id="stop3373-0" /></linearGradient><linearGradient
     id="XMLID_25_-9-1"
     gradientUnits="userSpaceOnUse"
     x1="-18.5557"
     y1="155.10451"
     x2="135.0152"
     y2="-2.8092999"><stop
       offset="0"
       style="stop-color:#BD0012"
       id="stop3380-7-7" /><stop
       offset="0"
       style="stop-color:#BD0012"
       id="stop3382-9-4" /><stop
       offset="0.07"
       style="stop-color:#FFFFFF"
       id="stop3384-9-0" /><stop
       offset="0.17"
       style="stop-color:#FFFFFF"
       id="stop3386-3-9" /><stop
       offset="0.27"
       style="stop-color:#C82F1C"
       id="stop3388-2-4" /><stop
       offset="0.33"
       style="stop-color:#820C01"
       id="stop3390-4-8" /><stop
       offset="0.46"
       style="stop-color:#A31601"
       id="stop3392-3-8" /><stop
       offset="0.72"
       style="stop-color:#B31301"
       id="stop3394-7-2" /><stop
       offset="0.99"
       style="stop-color:#E82609"
       id="stop3396-1-4" /><stop
       offset="1"
       style="stop-color:#E82609"
       id="stop3398-2-5" /></linearGradient><linearGradient
     id="XMLID_26_-2"
     gradientUnits="userSpaceOnUse"
     x1="99.074699"
     y1="171.0332"
     x2="52.817699"
     y2="159.61659"><stop
       offset="0"
       style="stop-color:#8C0C01"
       id="stop3403-0" /><stop
       offset="0"
       style="stop-color:#8C0C01"
       id="stop3405-2" /><stop
       offset="0.54"
       style="stop-color:#990C00"
       id="stop3407-1" /><stop
       offset="0.99"
       style="stop-color:#A80D0E"
       id="stop3409-7" /><stop
       offset="1"
       style="stop-color:#A80D0E"
       id="stop3411-5" /></linearGradient><linearGradient
     id="XMLID_27_-1"
     gradientUnits="userSpaceOnUse"
     x1="178.52589"
     y1="115.5146"
     x2="137.43269"
     y2="78.683998"><stop
       offset="0"
       style="stop-color:#7E110B"
       id="stop3416-7" /><stop
       offset="0"
       style="stop-color:#7E110B"
       id="stop3418-4" /><stop
       offset="0.99"
       style="stop-color:#9E0C00"
       id="stop3420-1" /><stop
       offset="1"
       style="stop-color:#9E0C00"
       id="stop3422-7" /></linearGradient><linearGradient
     id="XMLID_28_-1"
     gradientUnits="userSpaceOnUse"
     x1="193.6235"
     y1="47.937"
     x2="173.15421"
     y2="26.053801"><stop
       offset="0"
       style="stop-color:#79130D"
       id="stop3427-1" /><stop
       offset="0"
       style="stop-color:#79130D"
       id="stop3429-1" /><stop
       offset="0.99"
       style="stop-color:#9E120B"
       id="stop3431-7" /><stop
       offset="1"
       style="stop-color:#9E120B"
       id="stop3433-0" /></linearGradient><radialGradient
     id="XMLID_29_-4"
     cx="143.8315"
     cy="79.388199"
     r="50.357601"
     gradientUnits="userSpaceOnUse"><stop
       offset="0"
       style="stop-color:#A80D00"
       id="stop3440-0" /><stop
       offset="0"
       style="stop-color:#A80D00"
       id="stop3442-8" /><stop
       offset="0.99"
       style="stop-color:#7E0E08"
       id="stop3444-5" /><stop
       offset="1"
       style="stop-color:#7E0E08"
       id="stop3446-1" /></radialGradient><radialGradient
     id="XMLID_30_-6"
     cx="74.0923"
     cy="145.75101"
     r="66.943703"
     gradientUnits="userSpaceOnUse"><stop
       offset="0"
       style="stop-color:#A30C00"
       id="stop3451-6" /><stop
       offset="0"
       style="stop-color:#A30C00"
       id="stop3453-2" /><stop
       offset="0.99"
       style="stop-color:#800E08"
       id="stop3455-1" /><stop
       offset="1"
       style="stop-color:#800E08"
       id="stop3457-9" /></radialGradient><linearGradient
     id="XMLID_31_-6"
     gradientUnits="userSpaceOnUse"
     x1="26.669901"
     y1="197.33591"
     x2="9.9886999"
     y2="140.742"><stop
       offset="0"
       style="stop-color:#8B2114"
       id="stop3462-4" /><stop
       offset="0"
       style="stop-color:#8B2114"
       id="stop3464-8" /><stop
       offset="0.43"
       style="stop-color:#9E100A"
       id="stop3466-0" /><stop
       offset="0.99"
       style="stop-color:#B3100C"
       id="stop3468-8" /><stop
       offset="1"
       style="stop-color:#B3100C"
       id="stop3470-1" /></linearGradient><linearGradient
     id="XMLID_32_-0"
     gradientUnits="userSpaceOnUse"
     x1="154.6411"
     y1="9.7979002"
     x2="192.039"
     y2="26.305901"><stop
       offset="0"
       style="stop-color:#B31000"
       id="stop3475-2" /><stop
       offset="0"
       style="stop-color:#B31000"
       id="stop3477-2" /><stop
       offset="0.44"
       style="stop-color:#910F08"
       id="stop3479-9" /><stop
       offset="0.99"
       style="stop-color:#791C12"
       id="stop3481-7" /><stop
       offset="1"
       style="stop-color:#791C12"
       id="stop3483-5" /></linearGradient><linearGradient
     y2="26.305901"
     x2="192.039"
     y1="9.7979002"
     x1="154.6411"
     gradientUnits="userSpaceOnUse"
     id="linearGradient3368"
     xlink:href="#XMLID_32_-0"
     inkscape:collect="always" /></defs><sodipodi:namedview
   pagecolor="#ffffff"
   bordercolor="#666666"
   borderopacity="1"
   objecttolerance="10"
   gridtolerance="10"
   guidetolerance="10"
   inkscape:pageopacity="0"
   inkscape:pageshadow="2"
   inkscape:window-width="1920"
   inkscape:window-height="1138"
   id="namedview29"
   showgrid="false"
   inkscape:zoom="1.7163636"
   inkscape:cx="156.4089"
   inkscape:cy="268.5911"
   inkscape:window-x="-8"
   inkscape:window-y="-8"
   inkscape:window-maximized="1"
   inkscape:current-layer="Layer_1" />
<path
   style="fill:#E76F00;"
   d="M285.104,430.945h-2.038v-1.14h5.486v1.14h-2.024v5.688h-1.424V430.945z M296.046,431.242h-0.032  l-2.019,5.392h-0.924l-2.006-5.392h-0.025v5.392h-1.342v-6.828h1.975l1.86,4.835l1.854-4.835h1.968v6.828h-1.31V431.242z"
   id="path3" />
<path
   style="fill:#5382A1;"
   d="M102.681,291.324c0,0-14.178,8.245,10.09,11.035c29.4,3.354,44.426,2.873,76.825-3.259  c0,0,8.518,5.341,20.414,9.967C137.38,340.195,45.634,307.264,102.681,291.324"
   id="path5" />
<path
   style="fill:#5382A1;"
   d="M93.806,250.704c0,0-15.902,11.771,8.384,14.283c31.406,3.24,56.208,3.505,99.125-4.759  c0,0,5.936,6.018,15.27,9.309C128.771,295.215,30.962,271.562,93.806,250.704"
   id="path7" />
<path
   style="fill:#E76F00;"
   d="M168.625,181.799c17.896,20.604-4.702,39.145-4.702,39.145s45.441-23.458,24.572-52.833  c-19.491-27.394-34.438-41.005,46.479-87.934C234.974,80.177,107.961,111.899,168.625,181.799"
   id="path9" />
<path
   style="fill:#5382A1;"
   d="M264.684,321.369c0,0,10.492,8.645-11.555,15.333c-41.923,12.7-174.488,16.535-211.314,0.506  c-13.238-5.759,11.587-13.751,19.396-15.428c8.144-1.766,12.798-1.437,12.798-1.437c-14.722-10.371-95.157,20.364-40.857,29.166  C181.236,373.524,303.095,338.695,264.684,321.369"
   id="path11" />
<path
   style="fill:#5382A1;"
   d="M109.499,208.617c0,0-67.431,16.016-23.879,21.832c18.389,2.462,55.047,1.905,89.193-0.956  c27.906-2.354,55.927-7.359,55.927-7.359s-9.84,4.214-16.959,9.075c-68.475,18.009-200.756,9.631-162.674-8.79  C83.313,206.851,109.499,208.617,109.499,208.617"
   id="path13" />
<path
   style="fill:#5382A1;"
   d="M230.462,276.231c69.608-36.171,37.424-70.931,14.96-66.248c-5.506,1.146-7.961,2.139-7.961,2.139  s2.044-3.202,5.948-4.588c44.441-15.624,78.619,46.081-14.346,70.52C229.063,278.055,230.14,277.092,230.462,276.231"
   id="path15" />
<path
   style="fill:#E76F00;"
   d="M188.495,4.399c0,0,38.55,38.563-36.563,97.862c-60.233,47.568-13.735,74.69-0.025,105.678  c-35.159-31.722-60.961-59.647-43.651-85.637C133.663,84.151,204.049,65.654,188.495,4.399"
   id="path17" />
<path
   style="fill:#5382A1;"
   d="M116.339,374.246c66.815,4.277,169.417-2.373,171.847-33.988c0,0-4.671,11.985-55.219,21.503  c-57.028,10.732-127.364,9.479-169.081,2.601C63.887,364.361,72.426,371.43,116.339,374.246"
   id="path19" />
<path
   style="fill:#E76F00;"
   d="M105.389,495.048c-6.303,5.467-12.96,8.536-18.934,8.536c-8.527,0-13.134-5.113-13.134-13.314  c0-8.871,4.936-15.357,24.739-15.357h7.328V495.048 M122.781,514.671v-60.742c0-15.517-8.85-25.756-30.188-25.756  c-12.457,0-23.369,3.076-32.238,6.999l2.56,10.752c6.983-2.563,16.022-4.949,24.894-4.949c12.292,0,17.58,4.949,17.58,15.181v7.677  h-6.135c-29.865,0-43.337,11.593-43.337,28.994c0,15.017,8.878,23.553,25.594,23.553c10.745,0,18.766-4.436,26.264-10.928  l1.361,9.22H122.781z"
   id="path21" />
<path
   style="fill:#E76F00;"
   d="M180.825,514.671h-21.692l-26.106-84.96h18.943l16.199,52.2l3.601,15.699  c8.195-22.698,13.991-45.726,16.89-67.899h18.427C202.15,457.688,193.266,488.396,180.825,514.671"
   id="path23" />
<path
   style="fill:#E76F00;"
   d="M264.038,495.048c-6.315,5.467-12.984,8.536-18.958,8.536c-8.512,0-13.131-5.113-13.131-13.314  c0-8.871,4.948-15.357,24.749-15.357h7.34V495.048 M281.428,514.671v-60.742c0-15.517-8.872-25.756-30.185-25.756  c-12.466,0-23.382,3.076-32.247,6.999l2.556,10.752c6.986-2.563,16.042-4.949,24.907-4.949c12.283,0,17.579,4.949,17.579,15.181  v7.677h-6.145c-29.874,0-43.34,11.593-43.34,28.994c0,15.017,8.871,23.553,25.584,23.553c10.751,0,18.769-4.436,26.28-10.928  l1.366,9.22H281.428z"
   id="path25" />
<path
   style="fill:#E76F00;"
   d="M36.847,529.099c-4.958,7.239-12.966,12.966-21.733,16.206l-8.587-10.105  c6.673-3.424,12.396-8.954,15.055-14.105c2.3-4.581,3.252-10.485,3.252-24.604v-96.995h18.478v95.666  C43.311,514.038,41.802,521.663,36.847,529.099"
   id="path27" />
<g
   id="g3220"
   transform="matrix(0.36776445,0,0,0.37779977,216.13628,272.34348)"><polygon
     id="polygon3282"
     points="198.13,39.95 153.5,130.41 40.38,197.58 186.849,187.641 "
     clip-rule="evenodd"
     style="fill:url(#linearGradient3448);fill-rule:evenodd" /><polygon
     id="polygon3293"
     points="140.209,145.93 187.089,187.54 174.5,100.65 "
     clip-rule="evenodd"
     style="fill:url(#XMLID_18_-7);fill-rule:evenodd" /><polygon
     id="polygon3304"
     points="40.87,197.391 187.259,187.54 95.03,180.3 "
     clip-rule="evenodd"
     style="fill:url(#XMLID_19_-4);fill-rule:evenodd" /><polygon
     id="polygon3319"
     points="13.34,132.771 41,197.41 64.04,121.93 "
     clip-rule="evenodd"
     style="fill:url(#XMLID_20_-9);fill-rule:evenodd" /><polygon
     id="polygon3334"
     points="58.33,120.01 140.2,146.18 119,63.14 "
     clip-rule="evenodd"
     style="fill:url(#XMLID_21_-3);fill-rule:evenodd" /><polygon
     id="polygon3349"
     points="120,69.1 193.32,64.31 135.97,17.47 "
     clip-rule="evenodd"
     style="fill:url(#XMLID_22_-7);fill-rule:evenodd" /><polygon
     id="polygon3362"
     points="111.49,0.52 166.5,0.77 132.77,19.41 "
     clip-rule="evenodd"
     style="fill:url(#XMLID_23_-9);fill-rule:evenodd" /><polygon
     id="polygon3375"
     points="2.7,101.62 0,158.09 14.13,132.32 "
     clip-rule="evenodd"
     style="fill:url(#XMLID_24_-3);fill-rule:evenodd" /><path
     id="path3377"
     d="m 1.94,100.65 11.5,32.62 49.97,-11.211 57.05,-53.02 L 136.56,17.9 111.209,0 68.109,16.13 C 54.53,28.76 28.18,53.75 27.23,54.22 26.29,54.7 9.83,85.81 1.94,100.65 z"
     clip-rule="evenodd"
     inkscape:connector-curvature="0"
     style="fill:#ffffff;fill-rule:evenodd" /><path
     id="path3400"
     d="m 42.32,42.05 c 29.43,-29.18 67.37,-46.42 81.93,-31.73 14.551,14.69 -0.88,50.39 -30.31,79.56 -29.43,29.17 -66.9,47.36 -81.45,32.67 -14.56,-14.68 0.4,-51.33 29.83,-80.5 z"
     clip-rule="evenodd"
     inkscape:connector-curvature="0"
     style="fill:url(#XMLID_25_-9-1);fill-rule:evenodd" /><path
     id="path3413"
     d="m 41,197.38 22.86,-75.72 75.92,24.39 C 112.33,171.79 81.8,193.55 41,197.38 z"
     clip-rule="evenodd"
     inkscape:connector-curvature="0"
     style="fill:url(#XMLID_26_-2);fill-rule:evenodd" /><path
     id="path3424"
     d="m 120.56,68.89 19.49,77.2 C 162.98,121.98 183.56,96.06 193.639,64 l -73.079,4.89 z"
     clip-rule="evenodd"
     inkscape:connector-curvature="0"
     style="fill:url(#XMLID_27_-1);fill-rule:evenodd" /><path
     id="path3435"
     d="m 193.44,64.39 c 7.8,-23.54 9.6,-57.31 -27.181,-63.58 l -30.18,16.67 57.361,46.91 z"
     clip-rule="evenodd"
     inkscape:connector-curvature="0"
     style="fill:url(#XMLID_28_-1);fill-rule:evenodd" /><path
     id="path3437"
     d="m 0,157.75 c 1.08,38.851 29.11,39.43 41.05,39.771 L 13.47,133.11 0,157.75 z"
     clip-rule="evenodd"
     inkscape:connector-curvature="0"
     style="fill:#9e1209;fill-rule:evenodd" /><path
     id="path3448"
     d="m 120.669,69.01 c 17.62,10.83 53.131,32.58 53.851,32.98 1.119,0.63 15.31,-23.93 18.53,-37.81 l -72.381,4.83 z"
     clip-rule="evenodd"
     inkscape:connector-curvature="0"
     style="fill:url(#XMLID_29_-4);fill-rule:evenodd" /><path
     id="path3459"
     d="m 63.83,121.66 30.56,58.96 c 18.07,-9.8 32.22,-21.74 45.18,-34.53 L 63.83,121.66 z"
     clip-rule="evenodd"
     inkscape:connector-curvature="0"
     style="fill:url(#XMLID_30_-6);fill-rule:evenodd" /><path
     id="path3472"
     d="m 13.35,133.19 -4.33,51.56 c 8.17,11.16 19.41,12.13 31.2,11.26 -8.53,-21.23 -25.57,-63.68 -26.87,-62.82 z"
     clip-rule="evenodd"
     inkscape:connector-curvature="0"
     style="fill:url(#XMLID_31_-6);fill-rule:evenodd" /><path
     id="path3485"
     d="m 135.9,17.61 60.71,8.52 C 193.37,12.4 183.42,3.54 166.46,0.77 L 135.9,17.61 z"
     clip-rule="evenodd"
     inkscape:connector-curvature="0"
     style="fill:url(#linearGradient3368);fill-rule:evenodd" /></g></svg>